{
    "asset" : {
        "generator" : "Khronos glTF Blender I/O v3.2.43",
        "version" : "2.0"
    },
    "scene" : 0,
    "scenes" : [
        {
            "name" : "Scene",
            "nodes" : [
                0,
                1,
                2,
                3,
                4,
                5,
                6,
                7,
                8,
                9,
                10
            ]
        }
    ],
    "nodes" : [
        {
            "mesh" : 0,
            "name" : "Cube",
            "rotation" : [
                0,
                -0.03491472080349922,
                0,
                0.9993903040885925
            ],
            "scale" : [
                0.703759491443634,
                1.2539793252944946,
                5.010587215423584
            ],
            "translation" : [
                18.544958114624023,
                5.337004661560059,
                1.3409124612808228
            ]
        },
        {
            "mesh" : 1,
            "name" : "Cube.001",
            "rotation" : [
                0,
                -0.03491472080349922,
                0,
                0.9993903040885925
            ],
            "scale" : [
                0.703759491443634,
                1.2539793252944946,
                5.010587215423584
            ],
            "translation" : [
                -19.773801803588867,
                5.337004661560059,
                -1.8090423345565796
            ]
        },
        {
            "mesh" : 2,
            "name" : "Cube.002",
            "rotation" : [
                0,
                -0.33661356568336487,
                0,
                0.9416428804397583
            ],
            "scale" : [
                0.703759491443634,
                1.2539793252944946,
                5.010587692260742
            ],
            "translation" : [
                14.103602409362793,
                5.337004661560059,
                12.132911682128906
            ]
        },
        {
            "mesh" : 3,
            "name" : "Cube.003",
            "rotation" : [
                0,
                -0.33661356568336487,
                0,
                0.9416428804397583
            ],
            "scale" : [
                0.703759491443634,
                1.2539793252944946,
                5.010587692260742
            ],
            "translation" : [
                -15.332446098327637,
                5.337004661560059,
                -12.601041793823242
            ]
        },
        {
            "mesh" : 4,
            "name" : "Cube.004",
            "rotation" : [
                0,
                -0.6416485905647278,
                0,
                0.7669987678527832
            ],
            "scale" : [
                0.7037594318389893,
                1.2539793252944946,
                5.010586738586426
            ],
            "translation" : [
                2.5494022369384766,
                5.337004661560059,
                18.727806091308594
            ]
        },
        {
            "mesh" : 5,
            "name" : "Cube.005",
            "rotation" : [
                0,
                -0.6416485905647278,
                0,
                0.7669987678527832
            ],
            "scale" : [
                0.7037594318389893,
                1.2539793252944946,
                5.010586738586426
            ],
            "translation" : [
                -3.7782459259033203,
                5.337004661560059,
                -19.195938110351562
            ]
        },
        {
            "mesh" : 6,
            "name" : "Cube.006",
            "rotation" : [
                0,
                -0.8382527232170105,
                0,
                0.5452820062637329
            ],
            "scale" : [
                0.7037595510482788,
                1.2539793252944946,
                5.010587692260742
            ],
            "translation" : [
                -8.619979858398438,
                5.337004661560059,
                17.243732452392578
            ]
        },
        {
            "mesh" : 7,
            "name" : "Cube.007",
            "rotation" : [
                0,
                -0.8382527232170105,
                0,
                0.5452820062637329
            ],
            "scale" : [
                0.7037595510482788,
                1.2539793252944946,
                5.010587692260742
            ],
            "translation" : [
                7.391136169433594,
                5.337004661560059,
                -17.711864471435547
            ]
        },
        {
            "mesh" : 8,
            "name" : "Cube.008",
            "rotation" : [
                0,
                -0.9605949521064758,
                0,
                0.2779521644115448
            ],
            "scale" : [
                0.7037593722343445,
                1.2539793252944946,
                5.010586738586426
            ],
            "translation" : [
                -16.991819381713867,
                5.337004661560059,
                9.832874298095703
            ]
        },
        {
            "mesh" : 9,
            "name" : "Cube.009",
            "rotation" : [
                0,
                -0.9605949521064758,
                0,
                0.2779521644115448
            ],
            "scale" : [
                0.7037593722343445,
                1.2539793252944946,
                5.010586738586426
            ],
            "translation" : [
                15.762975692749023,
                5.337004661560059,
                -10.301006317138672
            ]
        },
        {
            "mesh" : 10,
            "name" : "Cylinder",
            "scale" : [
                3.2626852989196777,
                2.11442494392395,
                3.2626852989196777
            ],
            "translation" : [
                0,
                2.116126537322998,
                0
            ]
        }
    ],
    "materials" : [
        {
            "doubleSided" : true,
            "name" : "Material.002",
            "pbrMetallicRoughness" : {
                "baseColorFactor" : [
                    0.800000011920929,
                    0.800000011920929,
                    0.800000011920929,
                    1
                ],
                "metallicFactor" : 0,
                "roughnessFactor" : 0.5926605463027954
            }
        },
        {
            "doubleSided" : true,
            "name" : "Material.001",
            "pbrMetallicRoughness" : {
                "baseColorFactor" : [
                    0.32314252853393555,
                    0.5028859376907349,
                    0.7083758115768433,
                    1
                ],
                "metallicFactor" : 0,
                "roughnessFactor" : 0.2110091596841812
            }
        }
    ],
    "meshes" : [
        {
            "name" : "Cube.001",
            "primitives" : [
                {
                    "attributes" : {
                        "POSITION" : 0,
                        "NORMAL" : 1,
                        "TEXCOORD_0" : 2
                    },
                    "indices" : 3,
                    "material" : 0
                }
            ]
        },
        {
            "name" : "Cube.002",
            "primitives" : [
                {
                    "attributes" : {
                        "POSITION" : 4,
                        "NORMAL" : 5,
                        "TEXCOORD_0" : 6
                    },
                    "indices" : 3,
                    "material" : 0
                }
            ]
        },
        {
            "name" : "Cube.003",
            "primitives" : [
                {
                    "attributes" : {
                        "POSITION" : 7,
                        "NORMAL" : 8,
                        "TEXCOORD_0" : 9
                    },
                    "indices" : 3,
                    "material" : 0
                }
            ]
        },
        {
            "name" : "Cube.004",
            "primitives" : [
                {
                    "attributes" : {
                        "POSITION" : 10,
                        "NORMAL" : 11,
                        "TEXCOORD_0" : 12
                    },
                    "indices" : 3,
                    "material" : 0
                }
            ]
        },
        {
            "name" : "Cube.005",
            "primitives" : [
                {
                    "attributes" : {
                        "POSITION" : 13,
                        "NORMAL" : 14,
                        "TEXCOORD_0" : 15
                    },
                    "indices" : 3,
                    "material" : 0
                }
            ]
        },
        {
            "name" : "Cube.006",
            "primitives" : [
                {
                    "attributes" : {
                        "POSITION" : 16,
                        "NORMAL" : 17,
                        "TEXCOORD_0" : 18
                    },
                    "indices" : 3,
                    "material" : 0
                }
            ]
        },
        {
            "name" : "Cube.007",
            "primitives" : [
                {
                    "attributes" : {
                        "POSITION" : 19,
                        "NORMAL" : 20,
                        "TEXCOORD_0" : 21
                    },
                    "indices" : 3,
                    "material" : 0
                }
            ]
        },
        {
            "name" : "Cube.008",
            "primitives" : [
                {
                    "attributes" : {
                        "POSITION" : 22,
                        "NORMAL" : 23,
                        "TEXCOORD_0" : 24
                    },
                    "indices" : 3,
                    "material" : 0
                }
            ]
        },
        {
            "name" : "Cube.009",
            "primitives" : [
                {
                    "attributes" : {
                        "POSITION" : 25,
                        "NORMAL" : 26,
                        "TEXCOORD_0" : 27
                    },
                    "indices" : 3,
                    "material" : 0
                }
            ]
        },
        {
            "name" : "Cube.010",
            "primitives" : [
                {
                    "attributes" : {
                        "POSITION" : 28,
                        "NORMAL" : 29,
                        "TEXCOORD_0" : 30
                    },
                    "indices" : 3,
                    "material" : 0
                }
            ]
        },
        {
            "name" : "Cylinder",
            "primitives" : [
                {
                    "attributes" : {
                        "POSITION" : 31,
                        "NORMAL" : 32,
                        "TEXCOORD_0" : 33
                    },
                    "indices" : 34,
                    "material" : 1
                }
            ]
        }
    ],
    "accessors" : [
        {
            "bufferView" : 0,
            "componentType" : 5126,
            "count" : 409,
            "max" : [
                1.2282907962799072,
                1.0426907539367676,
                1.0787670612335205
            ],
            "min" : [
                -1.1469945907592773,
                -1.0017396211624146,
                -1.1277902126312256
            ],
            "type" : "VEC3"
        },
        {
            "bufferView" : 1,
            "componentType" : 5126,
            "count" : 409,
            "type" : "VEC3"
        },
        {
            "bufferView" : 2,
            "componentType" : 5126,
            "count" : 409,
            "type" : "VEC2"
        },
        {
            "bufferView" : 3,
            "componentType" : 5123,
            "count" : 564,
            "type" : "SCALAR"
        },
        {
            "bufferView" : 4,
            "componentType" : 5126,
            "count" : 409,
            "max" : [
                1.2282907962799072,
                1.0426907539367676,
                1.0787670612335205
            ],
            "min" : [
                -1.1469945907592773,
                -1.0017396211624146,
                -1.1277902126312256
            ],
            "type" : "VEC3"
        },
        {
            "bufferView" : 5,
            "componentType" : 5126,
            "count" : 409,
            "type" : "VEC3"
        },
        {
            "bufferView" : 6,
            "componentType" : 5126,
            "count" : 409,
            "type" : "VEC2"
        },
        {
            "bufferView" : 7,
            "componentType" : 5126,
            "count" : 409,
            "max" : [
                1.2282907962799072,
                1.0426907539367676,
                1.0787670612335205
            ],
            "min" : [
                -1.1469945907592773,
                -1.0017396211624146,
                -1.1277902126312256
            ],
            "type" : "VEC3"
        },
        {
            "bufferView" : 8,
            "componentType" : 5126,
            "count" : 409,
            "type" : "VEC3"
        },
        {
            "bufferView" : 9,
            "componentType" : 5126,
            "count" : 409,
            "type" : "VEC2"
        },
        {
            "bufferView" : 10,
            "componentType" : 5126,
            "count" : 409,
            "max" : [
                1.2282907962799072,
                1.0426907539367676,
                1.0787670612335205
            ],
            "min" : [
                -1.1469945907592773,
                -1.0017396211624146,
                -1.1277902126312256
            ],
            "type" : "VEC3"
        },
        {
            "bufferView" : 11,
            "componentType" : 5126,
            "count" : 409,
            "type" : "VEC3"
        },
        {
            "bufferView" : 12,
            "componentType" : 5126,
            "count" : 409,
            "type" : "VEC2"
        },
        {
            "bufferView" : 13,
            "componentType" : 5126,
            "count" : 409,
            "max" : [
                1.2282907962799072,
                1.0426907539367676,
                1.0787670612335205
            ],
            "min" : [
                -1.1469945907592773,
                -1.0017396211624146,
                -1.1277902126312256
            ],
            "type" : "VEC3"
        },
        {
            "bufferView" : 14,
            "componentType" : 5126,
            "count" : 409,
            "type" : "VEC3"
        },
        {
            "bufferView" : 15,
            "componentType" : 5126,
            "count" : 409,
            "type" : "VEC2"
        },
        {
            "bufferView" : 16,
            "componentType" : 5126,
            "count" : 409,
            "max" : [
                1.2282907962799072,
                1.0426907539367676,
                1.0787670612335205
            ],
            "min" : [
                -1.1469945907592773,
                -1.0017396211624146,
                -1.1277902126312256
            ],
            "type" : "VEC3"
        },
        {
            "bufferView" : 17,
            "componentType" : 5126,
            "count" : 409,
            "type" : "VEC3"
        },
        {
            "bufferView" : 18,
            "componentType" : 5126,
            "count" : 409,
            "type" : "VEC2"
        },
        {
            "bufferView" : 19,
            "componentType" : 5126,
            "count" : 409,
            "max" : [
                1.2282907962799072,
                1.0426907539367676,
                1.0787670612335205
            ],
            "min" : [
                -1.1469945907592773,
                -1.0017396211624146,
                -1.1277902126312256
            ],
            "type" : "VEC3"
        },
        {
            "bufferView" : 20,
            "componentType" : 5126,
            "count" : 409,
            "type" : "VEC3"
        },
        {
            "bufferView" : 21,
            "componentType" : 5126,
            "count" : 409,
            "type" : "VEC2"
        },
        {
            "bufferView" : 22,
            "componentType" : 5126,
            "count" : 409,
            "max" : [
                1.2282907962799072,
                1.0426907539367676,
                1.0787670612335205
            ],
            "min" : [
                -1.1469945907592773,
                -1.0017396211624146,
                -1.1277902126312256
            ],
            "type" : "VEC3"
        },
        {
            "bufferView" : 23,
            "componentType" : 5126,
            "count" : 409,
            "type" : "VEC3"
        },
        {
            "bufferView" : 24,
            "componentType" : 5126,
            "count" : 409,
            "type" : "VEC2"
        },
        {
            "bufferView" : 25,
            "componentType" : 5126,
            "count" : 409,
            "max" : [
                1.2282907962799072,
                1.0426907539367676,
                1.0787670612335205
            ],
            "min" : [
                -1.1469945907592773,
                -1.0017396211624146,
                -1.1277902126312256
            ],
            "type" : "VEC3"
        },
        {
            "bufferView" : 26,
            "componentType" : 5126,
            "count" : 409,
            "type" : "VEC3"
        },
        {
            "bufferView" : 27,
            "componentType" : 5126,
            "count" : 409,
            "type" : "VEC2"
        },
        {
            "bufferView" : 28,
            "componentType" : 5126,
            "count" : 409,
            "max" : [
                1.2282907962799072,
                1.0426907539367676,
                1.0787670612335205
            ],
            "min" : [
                -1.1469945907592773,
                -1.0017396211624146,
                -1.1277902126312256
            ],
            "type" : "VEC3"
        },
        {
            "bufferView" : 29,
            "componentType" : 5126,
            "count" : 409,
            "type" : "VEC3"
        },
        {
            "bufferView" : 30,
            "componentType" : 5126,
            "count" : 409,
            "type" : "VEC2"
        },
        {
            "bufferView" : 31,
            "componentType" : 5126,
            "count" : 280,
            "max" : [
                6.71999979019165,
                0.972308874130249,
                6.71999979019165
            ],
            "min" : [
                -6.71999979019165,
                -1,
                -6.71999979019165
            ],
            "type" : "VEC3"
        },
        {
            "bufferView" : 32,
            "componentType" : 5126,
            "count" : 280,
            "type" : "VEC3"
        },
        {
            "bufferView" : 33,
            "componentType" : 5126,
            "count" : 280,
            "type" : "VEC2"
        },
        {
            "bufferView" : 34,
            "componentType" : 5123,
            "count" : 468,
            "type" : "SCALAR"
        }
    ],
    "bufferViews" : [
        {
            "buffer" : 0,
            "byteLength" : 4908,
            "byteOffset" : 0
        },
        {
            "buffer" : 0,
            "byteLength" : 4908,
            "byteOffset" : 4908
        },
        {
            "buffer" : 0,
            "byteLength" : 3272,
            "byteOffset" : 9816
        },
        {
            "buffer" : 0,
            "byteLength" : 1128,
            "byteOffset" : 13088
        },
        {
            "buffer" : 0,
            "byteLength" : 4908,
            "byteOffset" : 14216
        },
        {
            "buffer" : 0,
            "byteLength" : 4908,
            "byteOffset" : 19124
        },
        {
            "buffer" : 0,
            "byteLength" : 3272,
            "byteOffset" : 24032
        },
        {
            "buffer" : 0,
            "byteLength" : 4908,
            "byteOffset" : 27304
        },
        {
            "buffer" : 0,
            "byteLength" : 4908,
            "byteOffset" : 32212
        },
        {
            "buffer" : 0,
            "byteLength" : 3272,
            "byteOffset" : 37120
        },
        {
            "buffer" : 0,
            "byteLength" : 4908,
            "byteOffset" : 40392
        },
        {
            "buffer" : 0,
            "byteLength" : 4908,
            "byteOffset" : 45300
        },
        {
            "buffer" : 0,
            "byteLength" : 3272,
            "byteOffset" : 50208
        },
        {
            "buffer" : 0,
            "byteLength" : 4908,
            "byteOffset" : 53480
        },
        {
            "buffer" : 0,
            "byteLength" : 4908,
            "byteOffset" : 58388
        },
        {
            "buffer" : 0,
            "byteLength" : 3272,
            "byteOffset" : 63296
        },
        {
            "buffer" : 0,
            "byteLength" : 4908,
            "byteOffset" : 66568
        },
        {
            "buffer" : 0,
            "byteLength" : 4908,
            "byteOffset" : 71476
        },
        {
            "buffer" : 0,
            "byteLength" : 3272,
            "byteOffset" : 76384
        },
        {
            "buffer" : 0,
            "byteLength" : 4908,
            "byteOffset" : 79656
        },
        {
            "buffer" : 0,
            "byteLength" : 4908,
            "byteOffset" : 84564
        },
        {
            "buffer" : 0,
            "byteLength" : 3272,
            "byteOffset" : 89472
        },
        {
            "buffer" : 0,
            "byteLength" : 4908,
            "byteOffset" : 92744
        },
        {
            "buffer" : 0,
            "byteLength" : 4908,
            "byteOffset" : 97652
        },
        {
            "buffer" : 0,
            "byteLength" : 3272,
            "byteOffset" : 102560
        },
        {
            "buffer" : 0,
            "byteLength" : 4908,
            "byteOffset" : 105832
        },
        {
            "buffer" : 0,
            "byteLength" : 4908,
            "byteOffset" : 110740
        },
        {
            "buffer" : 0,
            "byteLength" : 3272,
            "byteOffset" : 115648
        },
        {
            "buffer" : 0,
            "byteLength" : 4908,
            "byteOffset" : 118920
        },
        {
            "buffer" : 0,
            "byteLength" : 4908,
            "byteOffset" : 123828
        },
        {
            "buffer" : 0,
            "byteLength" : 3272,
            "byteOffset" : 128736
        },
        {
            "buffer" : 0,
            "byteLength" : 3360,
            "byteOffset" : 132008
        },
        {
            "buffer" : 0,
            "byteLength" : 3360,
            "byteOffset" : 135368
        },
        {
            "buffer" : 0,
            "byteLength" : 2240,
            "byteOffset" : 138728
        },
        {
            "buffer" : 0,
            "byteLength" : 936,
            "byteOffset" : 140968
        }
    ],
    "buffers" : [
        {
            "byteLength" : 141904,
            "uri" : "data:application/octet-stream;base64,"
        }
    ]
}
