{
    "asset" : {
        "generator" : "Khronos glTF Blender I/O v3.2.43",
        "version" : "2.0"
    },
    "scene" : 0,
    "scenes" : [
        {
            "name" : "Scene",
            "nodes" : [
                0
            ]
        }
    ],
    "nodes" : [
        {
            "mesh" : 0,
            "name" : "Text",
            "rotation" : [
                0.7071068286895752,
                0,
                0,
                0.7071068286895752
            ],
            "translation" : [
                -0.15135866403579712,
                -0.033083125948905945,
                0.006533073261380196
            ]
        }
    ],
    "materials" : [
        {
            "doubleSided" : true,
            "name" : "Material.001",
            "pbrMetallicRoughness" : {
                "baseColorFactor" : [
                    0.01495327614247799,
                    0,
                    0.8000000715255737,
                    1
                ],
                "metallicFactor" : 0,
                "roughnessFactor" : 0.5
            }
        }
    ],
    "meshes" : [
        {
            "name" : "Text",
            "primitives" : [
                {
                    "attributes" : {
                        "POSITION" : 0,
                        "NORMAL" : 1,
                        "TEXCOORD_0" : 2
                    },
                    "indices" : 3,
                    "material" : 0
                }
            ]
        }
    ],
    "accessors" : [
        {
            "bufferView" : 0,
            "componentType" : 5126,
            "count" : 2044,
            "max" : [
                0.30002492666244507,
                0.059999994933605194,
                0.019022982567548752
            ],
            "min" : [
                0.06420202553272247,
                -0.059999994933605194,
                -0.7013263702392578
            ],
            "type" : "VEC3"
        },
        {
            "bufferView" : 1,
            "componentType" : 5126,
            "count" : 2044,
            "type" : "VEC3"
        },
        {
            "bufferView" : 2,
            "componentType" : 5126,
            "count" : 2044,
            "type" : "VEC2"
        },
        {
            "bufferView" : 3,
            "componentType" : 5123,
            "count" : 8688,
            "type" : "SCALAR"
        }
    ],
    "bufferViews" : [
        {
            "buffer" : 0,
            "byteLength" : 24528,
            "byteOffset" : 0
        },
        {
            "buffer" : 0,
            "byteLength" : 24528,
            "byteOffset" : 24528
        },
        {
            "buffer" : 0,
            "byteLength" : 16352,
            "byteOffset" : 49056
        },
        {
            "buffer" : 0,
            "byteLength" : 17376,
            "byteOffset" : 65408
        }
    ],
    "buffers" : [
        {
            "byteLength" : 82784,
            "uri" : "data:application/octet-stream;base64,"
        }
    ]
}
