{
    "asset" : {
        "generator" : "Khronos glTF Blender I/O v3.2.43",
        "version" : "2.0"
    },
    "scene" : 0,
    "scenes" : [
        {
            "name" : "Scene",
            "nodes" : [
                0,
                1,
                2
            ]
        }
    ],
    "nodes" : [
        {
            "mesh" : 0,
            "name" : "Cylinder",
            "rotation" : [
                0,
                0,
                -0.12541469931602478,
                0.9921044111251831
            ],
            "translation" : [
                0,
                -0.032661598175764084,
                0
            ]
        },
        {
            "mesh" : 1,
            "name" : "Cylinder.001",
            "rotation" : [
                0.7071068286895752,
                0,
                0,
                0.7071068286895752
            ],
            "scale" : [
                3.0443882942199707,
                0.12617842853069305,
                3.0443882942199707
            ],
            "translation" : [
                0,
                0,
                0.27369260787963867
            ]
        },
        {
            "mesh" : 2,
            "name" : "Cylinder.002",
            "rotation" : [
                0.7071068286895752,
                0,
                0,
                0.7071068286895752
            ],
            "scale" : [
                0.6249616742134094,
                0.1867363303899765,
                0.6249616742134094
            ],
            "translation" : [
                0.3351643681526184,
                -0.05946464091539383,
                0.5246189832687378
            ]
        }
    ],
    "materials" : [
        {
            "doubleSided" : true,
            "name" : "RodBody",
            "pbrMetallicRoughness" : {
                "baseColorFactor" : [
                    0.2738305926322937,
                    0.07523592561483383,
                    0.021461201831698418,
                    1
                ],
                "metallicFactor" : 0,
                "roughnessFactor" : 0.5
            }
        },
        {
            "doubleSided" : true,
            "name" : "Material.001",
            "pbrMetallicRoughness" : {
                "baseColorFactor" : [
                    0.28829362988471985,
                    0.15818755328655243,
                    0.14707733690738678,
                    1
                ],
                "metallicFactor" : 0,
                "roughnessFactor" : 0.5
            }
        }
    ],
    "meshes" : [
        {
            "name" : "Cylinder",
            "primitives" : [
                {
                    "attributes" : {
                        "POSITION" : 0,
                        "NORMAL" : 1,
                        "TEXCOORD_0" : 2
                    },
                    "indices" : 3,
                    "material" : 0
                }
            ]
        },
        {
            "name" : "Cylinder.001",
            "primitives" : [
                {
                    "attributes" : {
                        "POSITION" : 4,
                        "NORMAL" : 5,
                        "TEXCOORD_0" : 6
                    },
                    "indices" : 7,
                    "material" : 1
                }
            ]
        },
        {
            "name" : "Cylinder.002",
            "primitives" : [
                {
                    "attributes" : {
                        "POSITION" : 8,
                        "NORMAL" : 9,
                        "TEXCOORD_0" : 10
                    },
                    "indices" : 7
                }
            ]
        }
    ],
    "accessors" : [
        {
            "bufferView" : 0,
            "componentType" : 5126,
            "count" : 182,
            "max" : [
                3.086439609527588,
                9.170268058776855,
                0.163261279463768
            ],
            "min" : [
                -0.17548732459545135,
                -1,
                -0.524570882320404
            ],
            "type" : "VEC3"
        },
        {
            "bufferView" : 1,
            "componentType" : 5126,
            "count" : 182,
            "type" : "VEC3"
        },
        {
            "bufferView" : 2,
            "componentType" : 5126,
            "count" : 182,
            "type" : "VEC2"
        },
        {
            "bufferView" : 3,
            "componentType" : 5123,
            "count" : 282,
            "type" : "SCALAR"
        },
        {
            "bufferView" : 4,
            "componentType" : 5126,
            "count" : 42,
            "max" : [
                0.17548732459545135,
                1,
                0.16217467188835144
            ],
            "min" : [
                -0.17548732459545135,
                -1,
                -0.18000030517578125
            ],
            "type" : "VEC3"
        },
        {
            "bufferView" : 5,
            "componentType" : 5126,
            "count" : 42,
            "type" : "VEC3"
        },
        {
            "bufferView" : 6,
            "componentType" : 5126,
            "count" : 42,
            "type" : "VEC2"
        },
        {
            "bufferView" : 7,
            "componentType" : 5123,
            "count" : 72,
            "type" : "SCALAR"
        },
        {
            "bufferView" : 8,
            "componentType" : 5126,
            "count" : 42,
            "max" : [
                0.17548732459545135,
                1,
                0.16217467188835144
            ],
            "min" : [
                -0.17548732459545135,
                -1,
                -0.18000030517578125
            ],
            "type" : "VEC3"
        },
        {
            "bufferView" : 9,
            "componentType" : 5126,
            "count" : 42,
            "type" : "VEC3"
        },
        {
            "bufferView" : 10,
            "componentType" : 5126,
            "count" : 42,
            "type" : "VEC2"
        }
    ],
    "bufferViews" : [
        {
            "buffer" : 0,
            "byteLength" : 2184,
            "byteOffset" : 0
        },
        {
            "buffer" : 0,
            "byteLength" : 2184,
            "byteOffset" : 2184
        },
        {
            "buffer" : 0,
            "byteLength" : 1456,
            "byteOffset" : 4368
        },
        {
            "buffer" : 0,
            "byteLength" : 564,
            "byteOffset" : 5824
        },
        {
            "buffer" : 0,
            "byteLength" : 504,
            "byteOffset" : 6388
        },
        {
            "buffer" : 0,
            "byteLength" : 504,
            "byteOffset" : 6892
        },
        {
            "buffer" : 0,
            "byteLength" : 336,
            "byteOffset" : 7396
        },
        {
            "buffer" : 0,
            "byteLength" : 144,
            "byteOffset" : 7732
        },
        {
            "buffer" : 0,
            "byteLength" : 504,
            "byteOffset" : 7876
        },
        {
            "buffer" : 0,
            "byteLength" : 504,
            "byteOffset" : 8380
        },
        {
            "buffer" : 0,
            "byteLength" : 336,
            "byteOffset" : 8884
        }
    ],
    "buffers" : [
        {
            "byteLength" : 9220,
            "uri" : "data:application/octet-stream;base64,"
        }
    ]
}
