{
    "asset" : {
        "generator" : "Khronos glTF Blender I/O v3.2.43",
        "version" : "2.0"
    },
    "scene" : 0,
    "scenes" : [
        {
            "name" : "Scene",
            "nodes" : [
                0,
                1,
                2,
                3,
                4
            ]
        }
    ],
    "nodes" : [
        {
            "mesh" : 0,
            "name" : "Sphere",
            "rotation" : [
                0,
                0,
                -0.7071068286895752,
                0.7071068286895752
            ],
            "translation" : [
                1.9751951694488525,
                0,
                0
            ]
        },
        {
            "mesh" : 1,
            "name" : "Sphere.001",
            "scale" : [
                0.16979092359542847,
                0.16979092359542847,
                0.16979092359542847
            ],
            "translation" : [
                1.9751951694488525,
                0,
                0
            ]
        },
        {
            "mesh" : 2,
            "name" : "Plane",
            "rotation" : [
                0.7071068286895752,
                0,
                0,
                0.7071068286895752
            ],
            "scale" : [
                0.404796838760376,
                0.404796838760376,
                0.404796838760376
            ],
            "translation" : [
                2.2777225971221924,
                0.9227753281593323,
                -0.0707118883728981
            ]
        },
        {
            "mesh" : 3,
            "name" : "Plane.001",
            "rotation" : [
                0,
                0.7071068286895752,
                -0.7071068286895752,
                0
            ],
            "scale" : [
                -0.3602144718170166,
                -0.30654576420783997,
                -0.3309394419193268
            ],
            "translation" : [
                2.2777225971221924,
                -0.8831334114074707,
                -0.0707118883728981
            ]
        },
        {
            "mesh" : 4,
            "name" : "Plane.002",
            "translation" : [
                1.9751951694488525,
                0,
                0
            ]
        }
    ],
    "materials" : [
        {
            "doubleSided" : true,
            "name" : "FishBody",
            "pbrMetallicRoughness" : {
                "baseColorFactor" : [
                    0.8000000715255737,
                    0.09140779078006744,
                    0.06750025600194931,
                    1
                ],
                "metallicFactor" : 0,
                "roughnessFactor" : 0.5
            }
        },
        {
            "doubleSided" : true,
            "name" : "FishEye",
            "pbrMetallicRoughness" : {
                "baseColorFactor" : [
                    0,
                    0,
                    0,
                    1
                ],
                "metallicFactor" : 0,
                "roughnessFactor" : 0.5
            }
        },
        {
            "doubleSided" : true,
            "name" : "FishFin",
            "pbrMetallicRoughness" : {
                "baseColorFactor" : [
                    0.8000000715255737,
                    0.20891162753105164,
                    0.13394087553024292,
                    1
                ],
                "metallicFactor" : 0,
                "roughnessFactor" : 0.5
            }
        }
    ],
    "meshes" : [
        {
            "name" : "Sphere",
            "primitives" : [
                {
                    "attributes" : {
                        "POSITION" : 0,
                        "NORMAL" : 1,
                        "TEXCOORD_0" : 2
                    },
                    "indices" : 3,
                    "material" : 0
                }
            ]
        },
        {
            "name" : "Sphere.001",
            "primitives" : [
                {
                    "attributes" : {
                        "POSITION" : 4,
                        "NORMAL" : 5,
                        "TEXCOORD_0" : 6
                    },
                    "indices" : 7,
                    "material" : 1
                }
            ]
        },
        {
            "name" : "Plane",
            "primitives" : [
                {
                    "attributes" : {
                        "POSITION" : 8,
                        "NORMAL" : 9,
                        "TEXCOORD_0" : 10
                    },
                    "indices" : 11,
                    "material" : 2
                }
            ]
        },
        {
            "name" : "Plane.001",
            "primitives" : [
                {
                    "attributes" : {
                        "POSITION" : 12,
                        "NORMAL" : 13,
                        "TEXCOORD_0" : 14
                    },
                    "indices" : 11,
                    "material" : 2
                }
            ]
        },
        {
            "name" : "Plane.002",
            "primitives" : [
                {
                    "attributes" : {
                        "POSITION" : 15,
                        "NORMAL" : 16,
                        "TEXCOORD_0" : 17
                    },
                    "indices" : 11,
                    "material" : 2
                }
            ]
        }
    ],
    "accessors" : [
        {
            "bufferView" : 0,
            "componentType" : 5126,
            "count" : 96,
            "max" : [
                1.025998830795288,
                3.190467596054077,
                0.4866553246974945
            ],
            "min" : [
                -1.025998592376709,
                -2.0136470794677734,
                -0.4866553246974945
            ],
            "type" : "VEC3"
        },
        {
            "bufferView" : 1,
            "componentType" : 5126,
            "count" : 96,
            "type" : "VEC3"
        },
        {
            "bufferView" : 2,
            "componentType" : 5126,
            "count" : 96,
            "type" : "VEC2"
        },
        {
            "bufferView" : 3,
            "componentType" : 5123,
            "count" : 402,
            "type" : "SCALAR"
        },
        {
            "bufferView" : 4,
            "componentType" : 5126,
            "count" : 80,
            "max" : [
                -4.917667388916016,
                1.919228196144104,
                2.7001914978027344
            ],
            "min" : [
                -6.564946174621582,
                -0.080771803855896,
                -2.7001914978027344
            ],
            "type" : "VEC3"
        },
        {
            "bufferView" : 5,
            "componentType" : 5126,
            "count" : 80,
            "type" : "VEC3"
        },
        {
            "bufferView" : 6,
            "componentType" : 5126,
            "count" : 80,
            "type" : "VEC2"
        },
        {
            "bufferView" : 7,
            "componentType" : 5123,
            "count" : 288,
            "type" : "SCALAR"
        },
        {
            "bufferView" : 8,
            "componentType" : 5126,
            "count" : 12,
            "max" : [
                2.1340384483337402,
                0.3038245737552643,
                0.20086830854415894
            ],
            "min" : [
                -1.9899334907531738,
                -1.959559092767904e-08,
                -1.0325343608856201
            ],
            "type" : "VEC3"
        },
        {
            "bufferView" : 9,
            "componentType" : 5126,
            "count" : 12,
            "type" : "VEC3"
        },
        {
            "bufferView" : 10,
            "componentType" : 5126,
            "count" : 12,
            "type" : "VEC2"
        },
        {
            "bufferView" : 11,
            "componentType" : 5123,
            "count" : 60,
            "type" : "SCALAR"
        },
        {
            "bufferView" : 12,
            "componentType" : 5126,
            "count" : 12,
            "max" : [
                2.1340384483337402,
                0.3038245737552643,
                0.20086830854415894
            ],
            "min" : [
                -1.9899334907531738,
                -1.959559092767904e-08,
                -1.0325343608856201
            ],
            "type" : "VEC3"
        },
        {
            "bufferView" : 13,
            "componentType" : 5126,
            "count" : 12,
            "type" : "VEC3"
        },
        {
            "bufferView" : 14,
            "componentType" : 5126,
            "count" : 12,
            "type" : "VEC2"
        },
        {
            "bufferView" : 15,
            "componentType" : 5126,
            "count" : 12,
            "max" : [
                1.0237748622894287,
                -0.08844529837369919,
                -0.3358800411224365
            ],
            "min" : [
                -0.3700164258480072,
                -0.345172256231308,
                -0.6512713432312012
            ],
            "type" : "VEC3"
        },
        {
            "bufferView" : 16,
            "componentType" : 5126,
            "count" : 12,
            "type" : "VEC3"
        },
        {
            "bufferView" : 17,
            "componentType" : 5126,
            "count" : 12,
            "type" : "VEC2"
        }
    ],
    "bufferViews" : [
        {
            "buffer" : 0,
            "byteLength" : 1152,
            "byteOffset" : 0
        },
        {
            "buffer" : 0,
            "byteLength" : 1152,
            "byteOffset" : 1152
        },
        {
            "buffer" : 0,
            "byteLength" : 768,
            "byteOffset" : 2304
        },
        {
            "buffer" : 0,
            "byteLength" : 804,
            "byteOffset" : 3072
        },
        {
            "buffer" : 0,
            "byteLength" : 960,
            "byteOffset" : 3876
        },
        {
            "buffer" : 0,
            "byteLength" : 960,
            "byteOffset" : 4836
        },
        {
            "buffer" : 0,
            "byteLength" : 640,
            "byteOffset" : 5796
        },
        {
            "buffer" : 0,
            "byteLength" : 576,
            "byteOffset" : 6436
        },
        {
            "buffer" : 0,
            "byteLength" : 144,
            "byteOffset" : 7012
        },
        {
            "buffer" : 0,
            "byteLength" : 144,
            "byteOffset" : 7156
        },
        {
            "buffer" : 0,
            "byteLength" : 96,
            "byteOffset" : 7300
        },
        {
            "buffer" : 0,
            "byteLength" : 120,
            "byteOffset" : 7396
        },
        {
            "buffer" : 0,
            "byteLength" : 144,
            "byteOffset" : 7516
        },
        {
            "buffer" : 0,
            "byteLength" : 144,
            "byteOffset" : 7660
        },
        {
            "buffer" : 0,
            "byteLength" : 96,
            "byteOffset" : 7804
        },
        {
            "buffer" : 0,
            "byteLength" : 144,
            "byteOffset" : 7900
        },
        {
            "buffer" : 0,
            "byteLength" : 144,
            "byteOffset" : 8044
        },
        {
            "buffer" : 0,
            "byteLength" : 96,
            "byteOffset" : 8188
        }
    ],
    "buffers" : [
        {
            "byteLength" : 8284,
            "uri" : "data:application/octet-stream;base64,"
        }
    ]
}
