{
    "asset" : {
        "generator" : "Khronos glTF Blender I/O v3.4.50",
        "version" : "2.0"
    },
    "extensionsUsed" : [
        "KHR_materials_specular",
        "KHR_materials_ior"
    ],
    "scene" : 0,
    "scenes" : [
        {
            "name" : "Scene",
            "nodes" : [
                5,
                6,
                7,
                8,
                9,
                10,
                11
            ]
        }
    ],
    "nodes" : [
        {
            "mesh" : 0,
            "name" : "node_id34",
            "rotation" : [
                0,
                0,
                0.2815304696559906,
                0.9595522880554199
            ],
            "scale" : [
                10.421855926513672,
                10.421856880187988,
                10.421856880187988
            ],
            "translation" : [
                -1.8355904817581177,
                -4.974678039550781,
                -0.7701815366744995
            ]
        },
        {
            "mesh" : 1,
            "name" : "node_id36",
            "rotation" : [
                0,
                0,
                0.2815304696559906,
                0.9595522880554199
            ],
            "scale" : [
                10.421855926513672,
                10.421856880187988,
                10.421856880187988
            ],
            "translation" : [
                -1.8374968767166138,
                -4.975902080535889,
                -1.0482094287872314
            ]
        },
        {
            "children" : [
                0,
                1
            ],
            "name" : "node_id33"
        },
        {
            "children" : [
                2
            ],
            "name" : "node_id32"
        },
        {
            "children" : [
                3
            ],
            "name" : "node_id31",
            "rotation" : [
                0,
                0.7071066498756409,
                -0.70710688829422,
                0
            ],
            "scale" : [
                -4355.6796875,
                -4355.6806640625,
                -4355.6806640625
            ],
            "translation" : [
                0,
                28.3173828125,
                256.0001220703125
            ]
        },
        {
            "children" : [
                4
            ],
            "name" : "node_id38",
            "scale" : [
                0.00036292863660492003,
                0.00036292863660492003,
                0.00036292863660492003
            ],
            "translation" : [
                -3.1391875743865967,
                2.4515507221221924,
                0.4749264717102051
            ]
        },
        {
            "mesh" : 2,
            "name" : "Plane.002",
            "rotation" : [
                0,
                1,
                0,
                0
            ],
            "scale" : [
                1.2804279327392578,
                2.4228906631469727,
                1.568874716758728
            ],
            "translation" : [
                -5.915679931640625,
                0.04658675193786621,
                -7.350215435028076
            ]
        },
        {
            "mesh" : 3,
            "name" : "Body",
            "scale" : [
                0.6791959404945374,
                0.6791959404945374,
                0.6791959404945374
            ],
            "translation" : [
                -6.4222798347473145,
                1.8516710996627808,
                -5.983778953552246
            ]
        },
        {
            "mesh" : 4,
            "name" : "Sphere.001",
            "scale" : [
                0.6791959404945374,
                0.6791959404945374,
                0.6791959404945374
            ],
            "translation" : [
                -6.4222798347473145,
                1.8516710996627808,
                -5.983778953552246
            ]
        },
        {
            "mesh" : 5,
            "name" : "Plane",
            "scale" : [
                0.2244184911251068,
                0.9057472348213196,
                0.448415607213974
            ],
            "translation" : [
                -6.4222798347473145,
                1.8516710996627808,
                -5.983778953552246
            ]
        },
        {
            "mesh" : 6,
            "name" : "Plane.001",
            "rotation" : [
                0,
                0,
                -0.49861904978752136,
                0.8668212294578552
            ],
            "scale" : [
                0.3875288963317871,
                0.4148717224597931,
                0.25833743810653687
            ],
            "translation" : [
                -5.727934837341309,
                1.8516712188720703,
                -5.992966651916504
            ]
        },
        {
            "mesh" : 7,
            "name" : "Water",
            "scale" : [
                77.0983657836914,
                1.545580267906189,
                96.58499145507812
            ],
            "translation" : [
                -6.027397155761719,
                -1.2453263998031616,
                0.643394947052002
            ]
        }
    ],
    "materials" : [
        {
            "alphaCutoff" : 0.5,
            "alphaMode" : "MASK",
            "doubleSided" : true,
            "name" : "59",
            "pbrMetallicRoughness" : {}
        },
        {
            "alphaCutoff" : 0.5,
            "alphaMode" : "MASK",
            "doubleSided" : true,
            "name" : "61",
            "pbrMetallicRoughness" : {}
        },
        {
            "doubleSided" : true,
            "name" : "Material.001",
            "pbrMetallicRoughness" : {
                "baseColorTexture" : {
                    "index" : 0
                },
                "metallicFactor" : 0,
                "roughnessFactor" : 0.5
            }
        },
        {
            "doubleSided" : true,
            "name" : "Eye",
            "pbrMetallicRoughness" : {
                "baseColorFactor" : [
                    0,
                    0,
                    0,
                    1
                ],
                "metallicFactor" : 0,
                "roughnessFactor" : 0.5
            }
        },
        {
            "doubleSided" : true,
            "name" : "BodyBlue",
            "pbrMetallicRoughness" : {
                "baseColorFactor" : [
                    0.030139978975057602,
                    0.13877858221530914,
                    0.6795430183410645,
                    1
                ],
                "metallicFactor" : 0,
                "roughnessFactor" : 0.5
            }
        },
        {
            "doubleSided" : true,
            "name" : "Beak",
            "pbrMetallicRoughness" : {
                "baseColorFactor" : [
                    0.8000000715255737,
                    0.6094624996185303,
                    0,
                    1
                ],
                "metallicFactor" : 0,
                "roughnessFactor" : 0.5
            }
        },
        {
            "doubleSided" : true,
            "extensions" : {
                "KHR_materials_specular" : {
                    "specularColorFactor" : [
                        1.3894069003759402,
                        1.9759310510166372,
                        2.7314750181940632
                    ]
                },
                "KHR_materials_ior" : {
                    "ior" : 1.4500000476837158
                }
            },
            "name" : "Water.001",
            "pbrMetallicRoughness" : {
                "baseColorFactor" : [
                    0.06852170079946518,
                    0.1512601226568222,
                    0.25784143805503845,
                    1
                ],
                "metallicFactor" : 0.4636363685131073,
                "roughnessFactor" : 0.5
            }
        }
    ],
    "meshes" : [
        {
            "name" : "mesh_id35",
            "primitives" : [
                {
                    "attributes" : {
                        "COLOR_0" : 0,
                        "POSITION" : 1,
                        "TEXCOORD_0" : 2,
                        "NORMAL" : 3
                    },
                    "indices" : 4,
                    "material" : 0
                }
            ]
        },
        {
            "name" : "mesh_id37",
            "primitives" : [
                {
                    "attributes" : {
                        "COLOR_0" : 5,
                        "POSITION" : 6,
                        "TEXCOORD_0" : 7,
                        "NORMAL" : 8
                    },
                    "indices" : 9,
                    "material" : 1
                }
            ]
        },
        {
            "name" : "Plane.002",
            "primitives" : [
                {
                    "attributes" : {
                        "POSITION" : 10,
                        "TEXCOORD_0" : 11,
                        "NORMAL" : 12
                    },
                    "indices" : 13
                }
            ]
        },
        {
            "name" : "Sphere.002",
            "primitives" : [
                {
                    "attributes" : {
                        "POSITION" : 14,
                        "TEXCOORD_0" : 15,
                        "NORMAL" : 16
                    },
                    "indices" : 17,
                    "material" : 2
                }
            ]
        },
        {
            "name" : "Sphere.003",
            "primitives" : [
                {
                    "attributes" : {
                        "POSITION" : 18,
                        "TEXCOORD_0" : 19,
                        "NORMAL" : 20
                    },
                    "indices" : 21,
                    "material" : 3
                }
            ]
        },
        {
            "name" : "Plane",
            "primitives" : [
                {
                    "attributes" : {
                        "POSITION" : 22,
                        "TEXCOORD_0" : 23,
                        "NORMAL" : 24
                    },
                    "indices" : 25,
                    "material" : 4
                }
            ]
        },
        {
            "name" : "Plane.001",
            "primitives" : [
                {
                    "attributes" : {
                        "POSITION" : 26,
                        "TEXCOORD_0" : 27,
                        "NORMAL" : 28
                    },
                    "indices" : 29,
                    "material" : 5
                }
            ]
        },
        {
            "name" : "Cube",
            "primitives" : [
                {
                    "attributes" : {
                        "POSITION" : 30,
                        "TEXCOORD_0" : 31,
                        "NORMAL" : 32
                    },
                    "indices" : 33,
                    "material" : 6
                }
            ]
        }
    ],
    "textures" : [
        {
            "sampler" : 0,
            "source" : 0
        }
    ],
    "images" : [
        {
            "bufferView" : 18,
            "mimeType" : "image/png",
            "name" : "PenguinBodyFinal"
        }
    ],
    "accessors" : [
        {
            "bufferView" : 0,
            "componentType" : 5123,
            "count" : 474,
            "normalized" : true,
            "type" : "VEC4"
        },
        {
            "bufferView" : 1,
            "componentType" : 5126,
            "count" : 474,
            "max" : [
                0.048742927610874176,
                0.03475270792841911,
                0.02190108597278595
            ],
            "min" : [
                -0.048742927610874176,
                -0.03475270792841911,
                -0.021901091560721397
            ],
            "type" : "VEC3"
        },
        {
            "bufferView" : 2,
            "componentType" : 5126,
            "count" : 474,
            "type" : "VEC2"
        },
        {
            "bufferView" : 3,
            "componentType" : 5126,
            "count" : 474,
            "type" : "VEC3"
        },
        {
            "bufferView" : 4,
            "componentType" : 5123,
            "count" : 1080,
            "type" : "SCALAR"
        },
        {
            "bufferView" : 5,
            "componentType" : 5123,
            "count" : 114,
            "normalized" : true,
            "type" : "VEC4"
        },
        {
            "bufferView" : 6,
            "componentType" : 5126,
            "count" : 114,
            "max" : [
                0.04878091812133789,
                0.03546816110610962,
                0.006252642720937729
            ],
            "min" : [
                -0.04878091812133789,
                -0.03546816110610962,
                -0.006252645514905453
            ],
            "type" : "VEC3"
        },
        {
            "bufferView" : 7,
            "componentType" : 5126,
            "count" : 114,
            "type" : "VEC2"
        },
        {
            "bufferView" : 8,
            "componentType" : 5126,
            "count" : 114,
            "type" : "VEC3"
        },
        {
            "bufferView" : 9,
            "componentType" : 5123,
            "count" : 576,
            "type" : "SCALAR"
        },
        {
            "bufferView" : 10,
            "componentType" : 5126,
            "count" : 1339,
            "max" : [
                1.8265341520309448,
                0.4551507830619812,
                1.6253900527954102
            ],
            "min" : [
                -1.5783718824386597,
                0.021859746426343918,
                -1.6762109994888306
            ],
            "type" : "VEC3"
        },
        {
            "bufferView" : 11,
            "componentType" : 5126,
            "count" : 1339,
            "type" : "VEC2"
        },
        {
            "bufferView" : 12,
            "componentType" : 5126,
            "count" : 1339,
            "type" : "VEC3"
        },
        {
            "bufferView" : 13,
            "componentType" : 5123,
            "count" : 1752,
            "type" : "SCALAR"
        },
        {
            "bufferView" : 14,
            "componentType" : 5126,
            "count" : 705,
            "max" : [
                1.147987723350525,
                1.0013132095336914,
                1.1398695707321167
            ],
            "min" : [
                -1.1474779844284058,
                -1.8490850925445557,
                -1.151328682899475
            ],
            "type" : "VEC3"
        },
        {
            "bufferView" : 15,
            "componentType" : 5126,
            "count" : 705,
            "type" : "VEC2"
        },
        {
            "bufferView" : 16,
            "componentType" : 5126,
            "count" : 705,
            "type" : "VEC3"
        },
        {
            "bufferView" : 17,
            "componentType" : 5123,
            "count" : 3450,
            "type" : "SCALAR"
        },
        {
            "bufferView" : 19,
            "componentType" : 5126,
            "count" : 192,
            "max" : [
                0.9763710498809814,
                0.2578771114349365,
                0.6303211450576782
            ],
            "min" : [
                0.7976833581924438,
                0.07787705212831497,
                -0.6303211450576782
            ],
            "type" : "VEC3"
        },
        {
            "bufferView" : 20,
            "componentType" : 5126,
            "count" : 192,
            "type" : "VEC2"
        },
        {
            "bufferView" : 21,
            "componentType" : 5126,
            "count" : 192,
            "type" : "VEC3"
        },
        {
            "bufferView" : 22,
            "componentType" : 5123,
            "count" : 780,
            "type" : "SCALAR"
        },
        {
            "bufferView" : 23,
            "componentType" : 5126,
            "count" : 1004,
            "max" : [
                0.8772185444831848,
                0.1412097066640854,
                2.004380226135254
            ],
            "min" : [
                -0.8772185444831848,
                -0.6997231245040894,
                -2.004380226135254
            ],
            "type" : "VEC3"
        },
        {
            "bufferView" : 24,
            "componentType" : 5126,
            "count" : 1004,
            "type" : "VEC2"
        },
        {
            "bufferView" : 25,
            "componentType" : 5126,
            "count" : 1004,
            "type" : "VEC3"
        },
        {
            "bufferView" : 26,
            "componentType" : 5123,
            "count" : 4608,
            "type" : "SCALAR"
        },
        {
            "bufferView" : 27,
            "componentType" : 5126,
            "count" : 122,
            "max" : [
                0.32320475578308105,
                0.16962596774101257,
                0.32579708099365234
            ],
            "min" : [
                -0.3228878080844879,
                0,
                -0.32579708099365234
            ],
            "type" : "VEC3"
        },
        {
            "bufferView" : 28,
            "componentType" : 5126,
            "count" : 122,
            "type" : "VEC2"
        },
        {
            "bufferView" : 29,
            "componentType" : 5126,
            "count" : 122,
            "type" : "VEC3"
        },
        {
            "bufferView" : 30,
            "componentType" : 5123,
            "count" : 672,
            "type" : "SCALAR"
        },
        {
            "bufferView" : 31,
            "componentType" : 5126,
            "count" : 24,
            "max" : [
                1,
                1,
                1
            ],
            "min" : [
                -1,
                -1,
                -1
            ],
            "type" : "VEC3"
        },
        {
            "bufferView" : 32,
            "componentType" : 5126,
            "count" : 24,
            "type" : "VEC2"
        },
        {
            "bufferView" : 33,
            "componentType" : 5126,
            "count" : 24,
            "type" : "VEC3"
        },
        {
            "bufferView" : 34,
            "componentType" : 5123,
            "count" : 36,
            "type" : "SCALAR"
        }
    ],
    "bufferViews" : [
        {
            "buffer" : 0,
            "byteLength" : 3792,
            "byteOffset" : 0,
            "target" : 34962
        },
        {
            "buffer" : 0,
            "byteLength" : 5688,
            "byteOffset" : 3792,
            "target" : 34962
        },
        {
            "buffer" : 0,
            "byteLength" : 3792,
            "byteOffset" : 9480,
            "target" : 34962
        },
        {
            "buffer" : 0,
            "byteLength" : 5688,
            "byteOffset" : 13272,
            "target" : 34962
        },
        {
            "buffer" : 0,
            "byteLength" : 2160,
            "byteOffset" : 18960,
            "target" : 34963
        },
        {
            "buffer" : 0,
            "byteLength" : 912,
            "byteOffset" : 21120,
            "target" : 34962
        },
        {
            "buffer" : 0,
            "byteLength" : 1368,
            "byteOffset" : 22032,
            "target" : 34962
        },
        {
            "buffer" : 0,
            "byteLength" : 912,
            "byteOffset" : 23400,
            "target" : 34962
        },
        {
            "buffer" : 0,
            "byteLength" : 1368,
            "byteOffset" : 24312,
            "target" : 34962
        },
        {
            "buffer" : 0,
            "byteLength" : 1152,
            "byteOffset" : 25680,
            "target" : 34963
        },
        {
            "buffer" : 0,
            "byteLength" : 16068,
            "byteOffset" : 26832,
            "target" : 34962
        },
        {
            "buffer" : 0,
            "byteLength" : 10712,
            "byteOffset" : 42900,
            "target" : 34962
        },
        {
            "buffer" : 0,
            "byteLength" : 16068,
            "byteOffset" : 53612,
            "target" : 34962
        },
        {
            "buffer" : 0,
            "byteLength" : 3504,
            "byteOffset" : 69680,
            "target" : 34963
        },
        {
            "buffer" : 0,
            "byteLength" : 8460,
            "byteOffset" : 73184,
            "target" : 34962
        },
        {
            "buffer" : 0,
            "byteLength" : 5640,
            "byteOffset" : 81644,
            "target" : 34962
        },
        {
            "buffer" : 0,
            "byteLength" : 8460,
            "byteOffset" : 87284,
            "target" : 34962
        },
        {
            "buffer" : 0,
            "byteLength" : 6900,
            "byteOffset" : 95744,
            "target" : 34963
        },
        {
            "buffer" : 0,
            "byteLength" : 15025,
            "byteOffset" : 102644
        },
        {
            "buffer" : 0,
            "byteLength" : 2304,
            "byteOffset" : 117672,
            "target" : 34962
        },
        {
            "buffer" : 0,
            "byteLength" : 1536,
            "byteOffset" : 119976,
            "target" : 34962
        },
        {
            "buffer" : 0,
            "byteLength" : 2304,
            "byteOffset" : 121512,
            "target" : 34962
        },
        {
            "buffer" : 0,
            "byteLength" : 1560,
            "byteOffset" : 123816,
            "target" : 34963
        },
        {
            "buffer" : 0,
            "byteLength" : 12048,
            "byteOffset" : 125376,
            "target" : 34962
        },
        {
            "buffer" : 0,
            "byteLength" : 8032,
            "byteOffset" : 137424,
            "target" : 34962
        },
        {
            "buffer" : 0,
            "byteLength" : 12048,
            "byteOffset" : 145456,
            "target" : 34962
        },
        {
            "buffer" : 0,
            "byteLength" : 9216,
            "byteOffset" : 157504,
            "target" : 34963
        },
        {
            "buffer" : 0,
            "byteLength" : 1464,
            "byteOffset" : 166720,
            "target" : 34962
        },
        {
            "buffer" : 0,
            "byteLength" : 976,
            "byteOffset" : 168184,
            "target" : 34962
        },
        {
            "buffer" : 0,
            "byteLength" : 1464,
            "byteOffset" : 169160,
            "target" : 34962
        },
        {
            "buffer" : 0,
            "byteLength" : 1344,
            "byteOffset" : 170624,
            "target" : 34963
        },
        {
            "buffer" : 0,
            "byteLength" : 288,
            "byteOffset" : 171968,
            "target" : 34962
        },
        {
            "buffer" : 0,
            "byteLength" : 192,
            "byteOffset" : 172256,
            "target" : 34962
        },
        {
            "buffer" : 0,
            "byteLength" : 288,
            "byteOffset" : 172448,
            "target" : 34962
        },
        {
            "buffer" : 0,
            "byteLength" : 72,
            "byteOffset" : 172736,
            "target" : 34963
        }
    ],
    "samplers" : [
        {
            "magFilter" : 9729,
            "minFilter" : 9987
        }
    ],
    "buffers" : [
        {
            "byteLength" : 172808,
            "uri" : "data:application/octet-stream;base64,"
        }
    ]
}
