{
    "asset" : {
        "generator" : "Khronos glTF Blender I/O v3.2.43",
        "version" : "2.0"
    },
    "scene" : 0,
    "scenes" : [
        {
            "name" : "Scene",
            "nodes" : [
                7
            ]
        }
    ],
    "nodes" : [
        {
            "mesh" : 0,
            "name" : "Icosphere",
            "rotation" : [
                0,
                -0.9355636835098267,
                0,
                0.35315802693367004
            ],
            "scale" : [
                1.319010615348816,
                1.3190104961395264,
                1.319010615348816
            ],
            "translation" : [
                -0.99334716796875,
                3.466405153274536,
                -1.0134592056274414
            ]
        },
        {
            "mesh" : 1,
            "name" : "Icosphere.001",
            "rotation" : [
                0,
                -0.6594919562339783,
                0,
                0.7517116665840149
            ],
            "scale" : [
                0.8737252950668335,
                0.8737252354621887,
                0.8737252950668335
            ],
            "translation" : [
                0.1816272735595703,
                3.264355182647705,
                -1.2248085737228394
            ]
        },
        {
            "mesh" : 2,
            "name" : "Icosphere.002",
            "rotation" : [
                0,
                -0.2663227915763855,
                0,
                0.9638839364051819
            ],
            "scale" : [
                0.8958059549331665,
                0.8958059549331665,
                0.8958059549331665
            ],
            "translation" : [
                -0.8440240621566772,
                3.571892023086548,
                1.3717070817947388
            ]
        },
        {
            "mesh" : 3,
            "name" : "Icosphere.003",
            "rotation" : [
                0,
                0.45649775862693787,
                0,
                0.8897245526313782
            ],
            "scale" : [
                1.585405707359314,
                1.585405707359314,
                1.585405707359314
            ],
            "translation" : [
                0.5317716598510742,
                3.0636167526245117,
                0.9058218598365784
            ]
        },
        {
            "mesh" : 4,
            "name" : "Icosphere.004",
            "rotation" : [
                0,
                0.568611204624176,
                0,
                0.8226064443588257
            ],
            "scale" : [
                1.476143479347229,
                1.476143479347229,
                1.476143479347229
            ],
            "translation" : [
                1.5396595001220703,
                2.4767704010009766,
                -0.6609984040260315
            ]
        },
        {
            "mesh" : 5,
            "name" : "Icosphere.005",
            "translation" : [
                -0.30813267827033997,
                1.6930689811706543,
                -1.4787168502807617
            ]
        },
        {
            "mesh" : 6,
            "name" : "Icosphere.006",
            "scale" : [
                0.8030335307121277,
                0.8030335307121277,
                0.8030335307121277
            ],
            "translation" : [
                0.5628948211669922,
                1.8416342735290527,
                1.1437164545059204
            ]
        },
        {
            "children" : [
                0,
                1,
                2,
                3,
                4,
                5,
                6
            ],
            "mesh" : 7,
            "name" : "Trunk",
            "rotation" : [
                0,
                -0.6592918634414673,
                0,
                0.7518870830535889
            ],
            "translation" : [
                -0.007620900869369507,
                0,
                0.028352081775665283
            ]
        }
    ],
    "materials" : [
        {
            "doubleSided" : true,
            "name" : "Green1",
            "pbrMetallicRoughness" : {
                "baseColorFactor" : [
                    0.0512692965567112,
                    0.20863677561283112,
                    0.029556892812252045,
                    1
                ],
                "metallicFactor" : 0,
                "roughnessFactor" : 0.6454545259475708
            }
        },
        {
            "doubleSided" : true,
            "name" : "Material.001",
            "pbrMetallicRoughness" : {
                "baseColorFactor" : [
                    0.0512692965567112,
                    0.20863677561283112,
                    0.029556892812252045,
                    1
                ],
                "metallicFactor" : 0,
                "roughnessFactor" : 0.5
            }
        },
        {
            "doubleSided" : true,
            "name" : "Trunk2",
            "pbrMetallicRoughness" : {
                "baseColorFactor" : [
                    0.27541765570640564,
                    0.13764652609825134,
                    0.05981375649571419,
                    1
                ],
                "metallicFactor" : 0,
                "roughnessFactor" : 0.8318182229995728
            }
        }
    ],
    "meshes" : [
        {
            "name" : "Icosphere",
            "primitives" : [
                {
                    "attributes" : {
                        "POSITION" : 0,
                        "NORMAL" : 1,
                        "TEXCOORD_0" : 2
                    },
                    "indices" : 3,
                    "material" : 0
                }
            ]
        },
        {
            "name" : "Icosphere.001",
            "primitives" : [
                {
                    "attributes" : {
                        "POSITION" : 4,
                        "NORMAL" : 5,
                        "TEXCOORD_0" : 6
                    },
                    "indices" : 3,
                    "material" : 1
                }
            ]
        },
        {
            "name" : "Icosphere.002",
            "primitives" : [
                {
                    "attributes" : {
                        "POSITION" : 7,
                        "NORMAL" : 8,
                        "TEXCOORD_0" : 9
                    },
                    "indices" : 3,
                    "material" : 1
                }
            ]
        },
        {
            "name" : "Icosphere.003",
            "primitives" : [
                {
                    "attributes" : {
                        "POSITION" : 10,
                        "NORMAL" : 11,
                        "TEXCOORD_0" : 12
                    },
                    "indices" : 3,
                    "material" : 0
                }
            ]
        },
        {
            "name" : "Icosphere.004",
            "primitives" : [
                {
                    "attributes" : {
                        "POSITION" : 13,
                        "NORMAL" : 14,
                        "TEXCOORD_0" : 15
                    },
                    "indices" : 3,
                    "material" : 0
                }
            ]
        },
        {
            "name" : "Icosphere.005",
            "primitives" : [
                {
                    "attributes" : {
                        "POSITION" : 16,
                        "NORMAL" : 17,
                        "TEXCOORD_0" : 18
                    },
                    "indices" : 3,
                    "material" : 0
                }
            ]
        },
        {
            "name" : "Icosphere.006",
            "primitives" : [
                {
                    "attributes" : {
                        "POSITION" : 19,
                        "NORMAL" : 20,
                        "TEXCOORD_0" : 21
                    },
                    "indices" : 3,
                    "material" : 1
                }
            ]
        },
        {
            "name" : "Cube.001",
            "primitives" : [
                {
                    "attributes" : {
                        "POSITION" : 22,
                        "NORMAL" : 23
                    },
                    "indices" : 24,
                    "material" : 2
                }
            ]
        }
    ],
    "accessors" : [
        {
            "bufferView" : 0,
            "componentType" : 5126,
            "count" : 60,
            "max" : [
                0.5187665224075317,
                0.5800000429153442,
                0.49337124824523926
            ],
            "min" : [
                -0.5187665224075317,
                -0.5800000429153442,
                -0.49337124824523926
            ],
            "type" : "VEC3"
        },
        {
            "bufferView" : 1,
            "componentType" : 5126,
            "count" : 60,
            "type" : "VEC3"
        },
        {
            "bufferView" : 2,
            "componentType" : 5126,
            "count" : 60,
            "type" : "VEC2"
        },
        {
            "bufferView" : 3,
            "componentType" : 5123,
            "count" : 60,
            "type" : "SCALAR"
        },
        {
            "bufferView" : 4,
            "componentType" : 5126,
            "count" : 60,
            "max" : [
                0.5187665224075317,
                0.5800000429153442,
                0.49337124824523926
            ],
            "min" : [
                -0.5187665224075317,
                -0.5800000429153442,
                -0.49337124824523926
            ],
            "type" : "VEC3"
        },
        {
            "bufferView" : 5,
            "componentType" : 5126,
            "count" : 60,
            "type" : "VEC3"
        },
        {
            "bufferView" : 6,
            "componentType" : 5126,
            "count" : 60,
            "type" : "VEC2"
        },
        {
            "bufferView" : 7,
            "componentType" : 5126,
            "count" : 60,
            "max" : [
                0.5187665224075317,
                0.5800000429153442,
                0.49337124824523926
            ],
            "min" : [
                -0.5187665224075317,
                -0.5800000429153442,
                -0.49337124824523926
            ],
            "type" : "VEC3"
        },
        {
            "bufferView" : 8,
            "componentType" : 5126,
            "count" : 60,
            "type" : "VEC3"
        },
        {
            "bufferView" : 9,
            "componentType" : 5126,
            "count" : 60,
            "type" : "VEC2"
        },
        {
            "bufferView" : 10,
            "componentType" : 5126,
            "count" : 60,
            "max" : [
                0.5187665224075317,
                0.5800000429153442,
                0.49337124824523926
            ],
            "min" : [
                -0.5187665224075317,
                -0.5800000429153442,
                -0.49337124824523926
            ],
            "type" : "VEC3"
        },
        {
            "bufferView" : 11,
            "componentType" : 5126,
            "count" : 60,
            "type" : "VEC3"
        },
        {
            "bufferView" : 12,
            "componentType" : 5126,
            "count" : 60,
            "type" : "VEC2"
        },
        {
            "bufferView" : 13,
            "componentType" : 5126,
            "count" : 60,
            "max" : [
                0.5187665224075317,
                0.5800000429153442,
                0.49337124824523926
            ],
            "min" : [
                -0.5187665224075317,
                -0.5800000429153442,
                -0.49337124824523926
            ],
            "type" : "VEC3"
        },
        {
            "bufferView" : 14,
            "componentType" : 5126,
            "count" : 60,
            "type" : "VEC3"
        },
        {
            "bufferView" : 15,
            "componentType" : 5126,
            "count" : 60,
            "type" : "VEC2"
        },
        {
            "bufferView" : 16,
            "componentType" : 5126,
            "count" : 60,
            "max" : [
                0.5187665224075317,
                0.5800000429153442,
                0.49337124824523926
            ],
            "min" : [
                -0.5187665224075317,
                -0.5800000429153442,
                -0.49337124824523926
            ],
            "type" : "VEC3"
        },
        {
            "bufferView" : 17,
            "componentType" : 5126,
            "count" : 60,
            "type" : "VEC3"
        },
        {
            "bufferView" : 18,
            "componentType" : 5126,
            "count" : 60,
            "type" : "VEC2"
        },
        {
            "bufferView" : 19,
            "componentType" : 5126,
            "count" : 60,
            "max" : [
                0.5187665224075317,
                0.5800000429153442,
                0.49337124824523926
            ],
            "min" : [
                -0.5187665224075317,
                -0.5800000429153442,
                -0.49337124824523926
            ],
            "type" : "VEC3"
        },
        {
            "bufferView" : 20,
            "componentType" : 5126,
            "count" : 60,
            "type" : "VEC3"
        },
        {
            "bufferView" : 21,
            "componentType" : 5126,
            "count" : 60,
            "type" : "VEC2"
        },
        {
            "bufferView" : 22,
            "componentType" : 5126,
            "count" : 963,
            "max" : [
                1.579336166381836,
                3.531827688217163,
                1.532142162322998
            ],
            "min" : [
                -1.0885343551635742,
                0,
                -1.5143592357635498
            ],
            "type" : "VEC3"
        },
        {
            "bufferView" : 23,
            "componentType" : 5126,
            "count" : 963,
            "type" : "VEC3"
        },
        {
            "bufferView" : 24,
            "componentType" : 5123,
            "count" : 1419,
            "type" : "SCALAR"
        }
    ],
    "bufferViews" : [
        {
            "buffer" : 0,
            "byteLength" : 720,
            "byteOffset" : 0
        },
        {
            "buffer" : 0,
            "byteLength" : 720,
            "byteOffset" : 720
        },
        {
            "buffer" : 0,
            "byteLength" : 480,
            "byteOffset" : 1440
        },
        {
            "buffer" : 0,
            "byteLength" : 120,
            "byteOffset" : 1920
        },
        {
            "buffer" : 0,
            "byteLength" : 720,
            "byteOffset" : 2040
        },
        {
            "buffer" : 0,
            "byteLength" : 720,
            "byteOffset" : 2760
        },
        {
            "buffer" : 0,
            "byteLength" : 480,
            "byteOffset" : 3480
        },
        {
            "buffer" : 0,
            "byteLength" : 720,
            "byteOffset" : 3960
        },
        {
            "buffer" : 0,
            "byteLength" : 720,
            "byteOffset" : 4680
        },
        {
            "buffer" : 0,
            "byteLength" : 480,
            "byteOffset" : 5400
        },
        {
            "buffer" : 0,
            "byteLength" : 720,
            "byteOffset" : 5880
        },
        {
            "buffer" : 0,
            "byteLength" : 720,
            "byteOffset" : 6600
        },
        {
            "buffer" : 0,
            "byteLength" : 480,
            "byteOffset" : 7320
        },
        {
            "buffer" : 0,
            "byteLength" : 720,
            "byteOffset" : 7800
        },
        {
            "buffer" : 0,
            "byteLength" : 720,
            "byteOffset" : 8520
        },
        {
            "buffer" : 0,
            "byteLength" : 480,
            "byteOffset" : 9240
        },
        {
            "buffer" : 0,
            "byteLength" : 720,
            "byteOffset" : 9720
        },
        {
            "buffer" : 0,
            "byteLength" : 720,
            "byteOffset" : 10440
        },
        {
            "buffer" : 0,
            "byteLength" : 480,
            "byteOffset" : 11160
        },
        {
            "buffer" : 0,
            "byteLength" : 720,
            "byteOffset" : 11640
        },
        {
            "buffer" : 0,
            "byteLength" : 720,
            "byteOffset" : 12360
        },
        {
            "buffer" : 0,
            "byteLength" : 480,
            "byteOffset" : 13080
        },
        {
            "buffer" : 0,
            "byteLength" : 11556,
            "byteOffset" : 13560
        },
        {
            "buffer" : 0,
            "byteLength" : 11556,
            "byteOffset" : 25116
        },
        {
            "buffer" : 0,
            "byteLength" : 2838,
            "byteOffset" : 36672
        }
    ],
    "buffers" : [
        {
            "byteLength" : 39512,
            "uri" : "data:application/octet-stream;base64,"
        }
    ]
}
