{
    "asset" : {
        "generator" : "Khronos glTF Blender I/O v3.2.43",
        "version" : "2.0"
    },
    "scene" : 0,
    "scenes" : [
        {
            "name" : "Scene",
            "nodes" : [
                0
            ]
        }
    ],
    "nodes" : [
        {
            "mesh" : 0,
            "name" : "Cube",
            "scale" : [
                0.703759491443634,
                1.2539793252944946,
                1.6797585487365723
            ]
        }
    ],
    "materials" : [
        {
            "doubleSided" : true,
            "name" : "Material",
            "pbrMetallicRoughness" : {
                "baseColorFactor" : [
                    0.800000011920929,
                    0.800000011920929,
                    0.800000011920929,
                    1
                ],
                "metallicFactor" : 0,
                "roughnessFactor" : 0.4000000059604645
            }
        }
    ],
    "meshes" : [
        {
            "name" : "Cube",
            "primitives" : [
                {
                    "attributes" : {
                        "POSITION" : 0,
                        "NORMAL" : 1,
                        "TEXCOORD_0" : 2
                    },
                    "indices" : 3,
                    "material" : 0
                }
            ]
        }
    ],
    "accessors" : [
        {
            "bufferView" : 0,
            "componentType" : 5126,
            "count" : 373,
            "max" : [
                1.2282907962799072,
                1.0426907539367676,
                1.0787670612335205
            ],
            "min" : [
                -1.1469945907592773,
                -1.0017396211624146,
                -1.1277902126312256
            ],
            "type" : "VEC3"
        },
        {
            "bufferView" : 1,
            "componentType" : 5126,
            "count" : 373,
            "type" : "VEC3"
        },
        {
            "bufferView" : 2,
            "componentType" : 5126,
            "count" : 373,
            "type" : "VEC2"
        },
        {
            "bufferView" : 3,
            "componentType" : 5123,
            "count" : 564,
            "type" : "SCALAR"
        }
    ],
    "bufferViews" : [
        {
            "buffer" : 0,
            "byteLength" : 4476,
            "byteOffset" : 0
        },
        {
            "buffer" : 0,
            "byteLength" : 4476,
            "byteOffset" : 4476
        },
        {
            "buffer" : 0,
            "byteLength" : 2984,
            "byteOffset" : 8952
        },
        {
            "buffer" : 0,
            "byteLength" : 1128,
            "byteOffset" : 11936
        }
    ],
    "buffers" : [
        {
            "byteLength" : 13064,
            "uri" : "data:application/octet-stream;base64,"
        }
    ]
}
