{
    "asset" : {
        "generator" : "Khronos glTF Blender I/O v3.2.43",
        "version" : "2.0"
    },
    "scene" : 0,
    "scenes" : [
        {
            "name" : "Scene",
            "nodes" : [
                7,
                8,
                9,
                10,
                11
            ]
        }
    ],
    "nodes" : [
        {
            "name" : "node_id30",
            "scale" : [
                59.76111602783203,
                59.76111602783203,
                59.76111602783203
            ],
            "translation" : [
                -0.6674150228500366,
                -1.4103564023971558,
                255.99996948242188
            ]
        },
        {
            "mesh" : 0,
            "name" : "node_id34",
            "rotation" : [
                0,
                0,
                -1,
                4.371138828673793e-08
            ],
            "scale" : [
                50.27303695678711,
                47.53876495361328,
                47.538761138916016
            ],
            "translation" : [
                -0.5566759705543518,
                -0.2535385489463806,
                0.6123798489570618
            ]
        },
        {
            "mesh" : 1,
            "name" : "node_id36",
            "rotation" : [
                0,
                0,
                -1,
                4.371138828673793e-08
            ],
            "scale" : [
                44.70182418823242,
                44.70186233520508,
                16.67394256591797
            ],
            "translation" : [
                0.547885537147522,
                -0.20552031695842743,
                -0.5837556719779968
            ]
        },
        {
            "children" : [
                1,
                2
            ],
            "name" : "node_id33"
        },
        {
            "children" : [
                3
            ],
            "name" : "node_id32"
        },
        {
            "children" : [
                4
            ],
            "name" : "node_id31",
            "rotation" : [
                0,
                0.7071068286895752,
                -0.7071068286895752,
                0
            ],
            "scale" : [
                -1195.222412109375,
                -1195.222412109375,
                -1195.222412109375
            ],
            "translation" : [
                -0.6674150228500366,
                -1.4103564023971558,
                255.99996948242188
            ]
        },
        {
            "children" : [
                0,
                5
            ],
            "name" : "node_id38",
            "scale" : [
                0.0010000000474974513,
                0.0010000000474974513,
                0.0010000000474974513
            ]
        },
        {
            "children" : [
                6
            ],
            "name" : "root"
        },
        {
            "mesh" : 2,
            "name" : "Body",
            "translation" : [
                0.013608932495117188,
                1.8014371395111084,
                0
            ]
        },
        {
            "mesh" : 3,
            "name" : "Sphere.001",
            "translation" : [
                0.013608932495117188,
                1.8014371395111084,
                0
            ]
        },
        {
            "mesh" : 4,
            "name" : "Plane",
            "scale" : [
                0.3304179012775421,
                1.3335580825805664,
                0.6602153778076172
            ],
            "translation" : [
                0.013608932495117188,
                1.8014371395111084,
                0
            ]
        },
        {
            "mesh" : 5,
            "name" : "Plane.001",
            "rotation" : [
                0,
                0,
                -0.49861904978752136,
                0.8668212294578552
            ],
            "scale" : [
                0.5705701112747192,
                0.6108277440071106,
                0.3803577423095703
            ],
            "translation" : [
                1.0359134674072266,
                1.8014373779296875,
                -0.013527370989322662
            ]
        }
    ],
    "materials" : [
        {
            "alphaCutoff" : 0.5,
            "alphaMode" : "MASK",
            "doubleSided" : true,
            "name" : "62",
            "pbrMetallicRoughness" : {
                "baseColorFactor" : [
                    0.13286833465099335,
                    0.048171788454055786,
                    0.010960106737911701,
                    1
                ],
                "metallicFactor" : 0,
                "roughnessFactor" : 0.5
            }
        },
        {
            "alphaCutoff" : 0.5,
            "alphaMode" : "MASK",
            "doubleSided" : true,
            "name" : "64",
            "pbrMetallicRoughness" : {
                "baseColorFactor" : [
                    0.13286833465099335,
                    0.048171788454055786,
                    0.010960106737911701,
                    1
                ],
                "metallicFactor" : 0,
                "roughnessFactor" : 0.5
            }
        },
        {
            "doubleSided" : true,
            "name" : "Material.001",
            "pbrMetallicRoughness" : {
                "baseColorTexture" : {
                    "index" : 0
                },
                "metallicFactor" : 0,
                "roughnessFactor" : 0.5
            }
        },
        {
            "doubleSided" : true,
            "name" : "Eye",
            "pbrMetallicRoughness" : {
                "baseColorFactor" : [
                    0,
                    0,
                    0,
                    1
                ],
                "metallicFactor" : 0,
                "roughnessFactor" : 0.5
            }
        },
        {
            "doubleSided" : true,
            "name" : "BodyBlue",
            "pbrMetallicRoughness" : {
                "baseColorFactor" : [
                    0.030139978975057602,
                    0.13877858221530914,
                    0.6795430183410645,
                    1
                ],
                "metallicFactor" : 0,
                "roughnessFactor" : 0.5
            }
        },
        {
            "doubleSided" : true,
            "name" : "Beak",
            "pbrMetallicRoughness" : {
                "baseColorFactor" : [
                    0.8000000715255737,
                    0.6094624996185303,
                    0,
                    1
                ],
                "metallicFactor" : 0,
                "roughnessFactor" : 0.5
            }
        }
    ],
    "meshes" : [
        {
            "name" : "mesh_id35",
            "primitives" : [
                {
                    "attributes" : {
                        "POSITION" : 0,
                        "NORMAL" : 1,
                        "TEXCOORD_0" : 2,
                        "COLOR_0" : 3
                    },
                    "indices" : 4,
                    "material" : 0
                }
            ]
        },
        {
            "name" : "mesh_id37",
            "primitives" : [
                {
                    "attributes" : {
                        "POSITION" : 5,
                        "NORMAL" : 6,
                        "TEXCOORD_0" : 7,
                        "COLOR_0" : 8
                    },
                    "indices" : 9,
                    "material" : 1
                }
            ]
        },
        {
            "name" : "Sphere.002",
            "primitives" : [
                {
                    "attributes" : {
                        "POSITION" : 10,
                        "NORMAL" : 11,
                        "TEXCOORD_0" : 12
                    },
                    "indices" : 13,
                    "material" : 2
                }
            ]
        },
        {
            "name" : "Sphere.003",
            "primitives" : [
                {
                    "attributes" : {
                        "POSITION" : 14,
                        "NORMAL" : 15,
                        "TEXCOORD_0" : 16
                    },
                    "indices" : 17,
                    "material" : 3
                }
            ]
        },
        {
            "name" : "Plane",
            "primitives" : [
                {
                    "attributes" : {
                        "POSITION" : 18,
                        "NORMAL" : 19,
                        "TEXCOORD_0" : 20
                    },
                    "indices" : 21,
                    "material" : 4
                }
            ]
        },
        {
            "name" : "Plane.001",
            "primitives" : [
                {
                    "attributes" : {
                        "POSITION" : 22,
                        "NORMAL" : 23,
                        "TEXCOORD_0" : 24
                    },
                    "indices" : 25,
                    "material" : 5
                }
            ]
        }
    ],
    "textures" : [
        {
            "sampler" : 0,
            "source" : 0
        }
    ],
    "images" : [
        {
            "bufferView" : 14,
            "mimeType" : "image/png",
            "name" : "Image_0"
        }
    ],
    "accessors" : [
        {
            "bufferView" : 0,
            "componentType" : 5126,
            "count" : 358,
            "max" : [
                0.049665115773677826,
                0.03541965037584305,
                0.020638545975089073
            ],
            "min" : [
                -0.049665115773677826,
                -0.03541964665055275,
                -0.02063855156302452
            ],
            "type" : "VEC3"
        },
        {
            "bufferView" : 1,
            "componentType" : 5126,
            "count" : 358,
            "type" : "VEC3"
        },
        {
            "bufferView" : 2,
            "componentType" : 5126,
            "count" : 358,
            "type" : "VEC2"
        },
        {
            "bufferView" : 3,
            "componentType" : 5123,
            "count" : 358,
            "normalized" : true,
            "type" : "VEC4"
        },
        {
            "bufferView" : 4,
            "componentType" : 5123,
            "count" : 816,
            "type" : "SCALAR"
        },
        {
            "bufferView" : 5,
            "componentType" : 5126,
            "count" : 416,
            "max" : [
                0.04987061396241188,
                0.03140758350491524,
                0.02255238965153694
            ],
            "min" : [
                -0.04987061396241188,
                -0.03140758350491524,
                -0.02255238965153694
            ],
            "type" : "VEC3"
        },
        {
            "bufferView" : 6,
            "componentType" : 5126,
            "count" : 416,
            "type" : "VEC3"
        },
        {
            "bufferView" : 7,
            "componentType" : 5126,
            "count" : 416,
            "type" : "VEC2"
        },
        {
            "bufferView" : 8,
            "componentType" : 5123,
            "count" : 416,
            "normalized" : true,
            "type" : "VEC4"
        },
        {
            "bufferView" : 9,
            "componentType" : 5123,
            "count" : 672,
            "type" : "SCALAR"
        },
        {
            "bufferView" : 10,
            "componentType" : 5126,
            "count" : 705,
            "max" : [
                1.147987723350525,
                1.0013132095336914,
                1.1398695707321167
            ],
            "min" : [
                -1.1474779844284058,
                -1.8490850925445557,
                -1.151328682899475
            ],
            "type" : "VEC3"
        },
        {
            "bufferView" : 11,
            "componentType" : 5126,
            "count" : 705,
            "type" : "VEC3"
        },
        {
            "bufferView" : 12,
            "componentType" : 5126,
            "count" : 705,
            "type" : "VEC2"
        },
        {
            "bufferView" : 13,
            "componentType" : 5123,
            "count" : 3450,
            "type" : "SCALAR"
        },
        {
            "bufferView" : 15,
            "componentType" : 5126,
            "count" : 192,
            "max" : [
                0.9763710498809814,
                0.2578771114349365,
                0.6303211450576782
            ],
            "min" : [
                0.7976833581924438,
                0.07787705212831497,
                -0.6303211450576782
            ],
            "type" : "VEC3"
        },
        {
            "bufferView" : 16,
            "componentType" : 5126,
            "count" : 192,
            "type" : "VEC3"
        },
        {
            "bufferView" : 17,
            "componentType" : 5126,
            "count" : 192,
            "type" : "VEC2"
        },
        {
            "bufferView" : 18,
            "componentType" : 5123,
            "count" : 780,
            "type" : "SCALAR"
        },
        {
            "bufferView" : 19,
            "componentType" : 5126,
            "count" : 1004,
            "max" : [
                0.8772185444831848,
                0.1412097066640854,
                2.004380226135254
            ],
            "min" : [
                -0.8772185444831848,
                -0.6997231245040894,
                -2.004380226135254
            ],
            "type" : "VEC3"
        },
        {
            "bufferView" : 20,
            "componentType" : 5126,
            "count" : 1004,
            "type" : "VEC3"
        },
        {
            "bufferView" : 21,
            "componentType" : 5126,
            "count" : 1004,
            "type" : "VEC2"
        },
        {
            "bufferView" : 22,
            "componentType" : 5123,
            "count" : 4608,
            "type" : "SCALAR"
        },
        {
            "bufferView" : 23,
            "componentType" : 5126,
            "count" : 122,
            "max" : [
                0.32320475578308105,
                0.16962596774101257,
                0.32579708099365234
            ],
            "min" : [
                -0.3228878080844879,
                0,
                -0.32579708099365234
            ],
            "type" : "VEC3"
        },
        {
            "bufferView" : 24,
            "componentType" : 5126,
            "count" : 122,
            "type" : "VEC3"
        },
        {
            "bufferView" : 25,
            "componentType" : 5126,
            "count" : 122,
            "type" : "VEC2"
        },
        {
            "bufferView" : 26,
            "componentType" : 5123,
            "count" : 672,
            "type" : "SCALAR"
        }
    ],
    "bufferViews" : [
        {
            "buffer" : 0,
            "byteLength" : 4296,
            "byteOffset" : 0
        },
        {
            "buffer" : 0,
            "byteLength" : 4296,
            "byteOffset" : 4296
        },
        {
            "buffer" : 0,
            "byteLength" : 2864,
            "byteOffset" : 8592
        },
        {
            "buffer" : 0,
            "byteLength" : 2864,
            "byteOffset" : 11456
        },
        {
            "buffer" : 0,
            "byteLength" : 1632,
            "byteOffset" : 14320
        },
        {
            "buffer" : 0,
            "byteLength" : 4992,
            "byteOffset" : 15952
        },
        {
            "buffer" : 0,
            "byteLength" : 4992,
            "byteOffset" : 20944
        },
        {
            "buffer" : 0,
            "byteLength" : 3328,
            "byteOffset" : 25936
        },
        {
            "buffer" : 0,
            "byteLength" : 3328,
            "byteOffset" : 29264
        },
        {
            "buffer" : 0,
            "byteLength" : 1344,
            "byteOffset" : 32592
        },
        {
            "buffer" : 0,
            "byteLength" : 8460,
            "byteOffset" : 33936
        },
        {
            "buffer" : 0,
            "byteLength" : 8460,
            "byteOffset" : 42396
        },
        {
            "buffer" : 0,
            "byteLength" : 5640,
            "byteOffset" : 50856
        },
        {
            "buffer" : 0,
            "byteLength" : 6900,
            "byteOffset" : 56496
        },
        {
            "buffer" : 0,
            "byteLength" : 15025,
            "byteOffset" : 63396
        },
        {
            "buffer" : 0,
            "byteLength" : 2304,
            "byteOffset" : 78424
        },
        {
            "buffer" : 0,
            "byteLength" : 2304,
            "byteOffset" : 80728
        },
        {
            "buffer" : 0,
            "byteLength" : 1536,
            "byteOffset" : 83032
        },
        {
            "buffer" : 0,
            "byteLength" : 1560,
            "byteOffset" : 84568
        },
        {
            "buffer" : 0,
            "byteLength" : 12048,
            "byteOffset" : 86128
        },
        {
            "buffer" : 0,
            "byteLength" : 12048,
            "byteOffset" : 98176
        },
        {
            "buffer" : 0,
            "byteLength" : 8032,
            "byteOffset" : 110224
        },
        {
            "buffer" : 0,
            "byteLength" : 9216,
            "byteOffset" : 118256
        },
        {
            "buffer" : 0,
            "byteLength" : 1464,
            "byteOffset" : 127472
        },
        {
            "buffer" : 0,
            "byteLength" : 1464,
            "byteOffset" : 128936
        },
        {
            "buffer" : 0,
            "byteLength" : 976,
            "byteOffset" : 130400
        },
        {
            "buffer" : 0,
            "byteLength" : 1344,
            "byteOffset" : 131376
        }
    ],
    "samplers" : [
        {
            "magFilter" : 9729,
            "minFilter" : 9987
        }
    ],
    "buffers" : [
        {
            "byteLength" : 132720,
            "uri" : "data:application/octet-stream;base64,"
        }
    ]
}
