{
    "asset" : {
        "generator" : "Khronos glTF Blender I/O v3.2.43",
        "version" : "2.0"
    },
    "scene" : 0,
    "scenes" : [
        {
            "name" : "Scene",
            "nodes" : [
                0,
                1,
                2,
                3
            ]
        }
    ],
    "nodes" : [
        {
            "mesh" : 0,
            "name" : "Body",
            "translation" : [
                0,
                1.8516710996627808,
                0
            ]
        },
        {
            "mesh" : 1,
            "name" : "Sphere.001",
            "translation" : [
                0,
                1.8516710996627808,
                0
            ]
        },
        {
            "mesh" : 2,
            "name" : "Plane",
            "scale" : [
                0.3304179012775421,
                1.3335580825805664,
                0.6602153778076172
            ],
            "translation" : [
                0,
                1.8516710996627808,
                0
            ]
        },
        {
            "mesh" : 3,
            "name" : "Plane.001",
            "rotation" : [
                0,
                0,
                -0.49861904978752136,
                0.8668212294578552
            ],
            "scale" : [
                0.5705701112747192,
                0.6108277440071106,
                0.3803577423095703
            ],
            "translation" : [
                1.0223045349121094,
                1.8516712188720703,
                -0.01352731417864561
            ]
        }
    ],
    "materials" : [
        {
            "doubleSided" : true,
            "name" : "Material.001",
            "pbrMetallicRoughness" : {
                "baseColorTexture" : {
                    "index" : 0
                },
                "metallicFactor" : 0,
                "roughnessFactor" : 0.5
            }
        },
        {
            "doubleSided" : true,
            "name" : "Eye",
            "pbrMetallicRoughness" : {
                "baseColorFactor" : [
                    0,
                    0,
                    0,
                    1
                ],
                "metallicFactor" : 0,
                "roughnessFactor" : 0.5
            }
        },
        {
            "doubleSided" : true,
            "name" : "BodyBlue",
            "pbrMetallicRoughness" : {
                "baseColorFactor" : [
                    0.030139978975057602,
                    0.13877858221530914,
                    0.6795430183410645,
                    1
                ],
                "metallicFactor" : 0,
                "roughnessFactor" : 0.5
            }
        },
        {
            "doubleSided" : true,
            "name" : "Beak",
            "pbrMetallicRoughness" : {
                "baseColorFactor" : [
                    0.8000000715255737,
                    0.6094624996185303,
                    0,
                    1
                ],
                "metallicFactor" : 0,
                "roughnessFactor" : 0.5
            }
        }
    ],
    "meshes" : [
        {
            "name" : "Sphere.002",
            "primitives" : [
                {
                    "attributes" : {
                        "POSITION" : 0,
                        "NORMAL" : 1,
                        "TEXCOORD_0" : 2
                    },
                    "indices" : 3,
                    "material" : 0
                }
            ]
        },
        {
            "name" : "Sphere.003",
            "primitives" : [
                {
                    "attributes" : {
                        "POSITION" : 4,
                        "NORMAL" : 5,
                        "TEXCOORD_0" : 6
                    },
                    "indices" : 7,
                    "material" : 1
                }
            ]
        },
        {
            "name" : "Plane",
            "primitives" : [
                {
                    "attributes" : {
                        "POSITION" : 8,
                        "NORMAL" : 9,
                        "TEXCOORD_0" : 10
                    },
                    "indices" : 11,
                    "material" : 2
                }
            ]
        },
        {
            "name" : "Plane.001",
            "primitives" : [
                {
                    "attributes" : {
                        "POSITION" : 12,
                        "NORMAL" : 13,
                        "TEXCOORD_0" : 14
                    },
                    "indices" : 15,
                    "material" : 3
                }
            ]
        }
    ],
    "textures" : [
        {
            "sampler" : 0,
            "source" : 0
        }
    ],
    "images" : [
        {
            "bufferView" : 4,
            "mimeType" : "image/png",
            "name" : "PenguinBodyFinal"
        }
    ],
    "accessors" : [
        {
            "bufferView" : 0,
            "componentType" : 5126,
            "count" : 705,
            "max" : [
                1.147987723350525,
                1.0013132095336914,
                1.1398695707321167
            ],
            "min" : [
                -1.1474779844284058,
                -1.8490850925445557,
                -1.151328682899475
            ],
            "type" : "VEC3"
        },
        {
            "bufferView" : 1,
            "componentType" : 5126,
            "count" : 705,
            "type" : "VEC3"
        },
        {
            "bufferView" : 2,
            "componentType" : 5126,
            "count" : 705,
            "type" : "VEC2"
        },
        {
            "bufferView" : 3,
            "componentType" : 5123,
            "count" : 3450,
            "type" : "SCALAR"
        },
        {
            "bufferView" : 5,
            "componentType" : 5126,
            "count" : 192,
            "max" : [
                0.9763710498809814,
                0.2578771114349365,
                0.6303211450576782
            ],
            "min" : [
                0.7976833581924438,
                0.07787705212831497,
                -0.6303211450576782
            ],
            "type" : "VEC3"
        },
        {
            "bufferView" : 6,
            "componentType" : 5126,
            "count" : 192,
            "type" : "VEC3"
        },
        {
            "bufferView" : 7,
            "componentType" : 5126,
            "count" : 192,
            "type" : "VEC2"
        },
        {
            "bufferView" : 8,
            "componentType" : 5123,
            "count" : 780,
            "type" : "SCALAR"
        },
        {
            "bufferView" : 9,
            "componentType" : 5126,
            "count" : 736,
            "max" : [
                0.8772185444831848,
                0.1412097066640854,
                2.004380226135254
            ],
            "min" : [
                -0.8772185444831848,
                -0.6997231245040894,
                -2.004380226135254
            ],
            "type" : "VEC3"
        },
        {
            "bufferView" : 10,
            "componentType" : 5126,
            "count" : 736,
            "type" : "VEC3"
        },
        {
            "bufferView" : 11,
            "componentType" : 5126,
            "count" : 736,
            "type" : "VEC2"
        },
        {
            "bufferView" : 12,
            "componentType" : 5123,
            "count" : 4608,
            "type" : "SCALAR"
        },
        {
            "bufferView" : 13,
            "componentType" : 5126,
            "count" : 122,
            "max" : [
                0.32320475578308105,
                0.16962596774101257,
                0.32579708099365234
            ],
            "min" : [
                -0.3228878080844879,
                0,
                -0.32579708099365234
            ],
            "type" : "VEC3"
        },
        {
            "bufferView" : 14,
            "componentType" : 5126,
            "count" : 122,
            "type" : "VEC3"
        },
        {
            "bufferView" : 15,
            "componentType" : 5126,
            "count" : 122,
            "type" : "VEC2"
        },
        {
            "bufferView" : 16,
            "componentType" : 5123,
            "count" : 672,
            "type" : "SCALAR"
        }
    ],
    "bufferViews" : [
        {
            "buffer" : 0,
            "byteLength" : 8460,
            "byteOffset" : 0
        },
        {
            "buffer" : 0,
            "byteLength" : 8460,
            "byteOffset" : 8460
        },
        {
            "buffer" : 0,
            "byteLength" : 5640,
            "byteOffset" : 16920
        },
        {
            "buffer" : 0,
            "byteLength" : 6900,
            "byteOffset" : 22560
        },
        {
            "buffer" : 0,
            "byteLength" : 15025,
            "byteOffset" : 29460
        },
        {
            "buffer" : 0,
            "byteLength" : 2304,
            "byteOffset" : 44488
        },
        {
            "buffer" : 0,
            "byteLength" : 2304,
            "byteOffset" : 46792
        },
        {
            "buffer" : 0,
            "byteLength" : 1536,
            "byteOffset" : 49096
        },
        {
            "buffer" : 0,
            "byteLength" : 1560,
            "byteOffset" : 50632
        },
        {
            "buffer" : 0,
            "byteLength" : 8832,
            "byteOffset" : 52192
        },
        {
            "buffer" : 0,
            "byteLength" : 8832,
            "byteOffset" : 61024
        },
        {
            "buffer" : 0,
            "byteLength" : 5888,
            "byteOffset" : 69856
        },
        {
            "buffer" : 0,
            "byteLength" : 9216,
            "byteOffset" : 75744
        },
        {
            "buffer" : 0,
            "byteLength" : 1464,
            "byteOffset" : 84960
        },
        {
            "buffer" : 0,
            "byteLength" : 1464,
            "byteOffset" : 86424
        },
        {
            "buffer" : 0,
            "byteLength" : 976,
            "byteOffset" : 87888
        },
        {
            "buffer" : 0,
            "byteLength" : 1344,
            "byteOffset" : 88864
        }
    ],
    "samplers" : [
        {
            "magFilter" : 9729,
            "minFilter" : 9987
        }
    ],
    "buffers" : [
        {
            "byteLength" : 90208,
            "uri" : "data:application/octet-stream;base64,"
        }
    ]
}
