{
    "asset" : {
        "generator" : "Khronos glTF Blender I/O v3.2.43",
        "version" : "2.0"
    },
    "scene" : 0,
    "scenes" : [
        {
            "name" : "Scene",
            "nodes" : [
                0,
                1,
                2
            ]
        }
    ],
    "nodes" : [
        {
            "mesh" : 0,
            "name" : "Sphere",
            "rotation" : [
                0,
                0,
                -0.7071068286895752,
                0.7071068286895752
            ],
            "scale" : [
                0.7334515452384949,
                1,
                1
            ]
        },
        {
            "mesh" : 1,
            "name" : "Plane",
            "rotation" : [
                0,
                0,
                0.508095383644104,
                0.8613008260726929
            ],
            "scale" : [
                0.28969183564186096,
                1.1691886186599731,
                0.5788396596908569
            ],
            "translation" : [
                -0.329786479473114,
                -0.00914013385772705,
                0
            ]
        },
        {
            "mesh" : 2,
            "name" : "Plane.001"
        }
    ],
    "materials" : [
        {
            "doubleSided" : true,
            "name" : "BodyBlue",
            "pbrMetallicRoughness" : {
                "baseColorTexture" : {
                    "index" : 0
                },
                "metallicFactor" : 0,
                "roughnessFactor" : 0.5
            }
        },
        {
            "doubleSided" : true,
            "name" : "BodyBlue.001",
            "pbrMetallicRoughness" : {
                "baseColorFactor" : [
                    0.12823915481567383,
                    0.12823915481567383,
                    0.12823915481567383,
                    1
                ],
                "metallicFactor" : 0,
                "roughnessFactor" : 0.4000000059604645
            }
        }
    ],
    "meshes" : [
        {
            "name" : "Sphere",
            "primitives" : [
                {
                    "attributes" : {
                        "POSITION" : 0,
                        "NORMAL" : 1,
                        "TEXCOORD_0" : 2
                    },
                    "indices" : 3,
                    "material" : 0
                }
            ]
        },
        {
            "name" : "Plane.002",
            "primitives" : [
                {
                    "attributes" : {
                        "POSITION" : 4,
                        "NORMAL" : 5,
                        "TEXCOORD_0" : 6
                    },
                    "indices" : 7,
                    "material" : 1
                }
            ]
        },
        {
            "name" : "Plane.003",
            "primitives" : [
                {
                    "attributes" : {
                        "POSITION" : 8,
                        "NORMAL" : 9,
                        "TEXCOORD_0" : 10
                    },
                    "indices" : 11,
                    "material" : 1
                }
            ]
        }
    ],
    "textures" : [
        {
            "sampler" : 0,
            "source" : 0
        }
    ],
    "images" : [
        {
            "bufferView" : 4,
            "mimeType" : "image/png",
            "name" : "SealBody"
        }
    ],
    "accessors" : [
        {
            "bufferView" : 0,
            "componentType" : 5126,
            "count" : 491,
            "max" : [
                1.004154920578003,
                1.7397634983062744,
                0.9982067346572876
            ],
            "min" : [
                -1.0041550397872925,
                -1.2992149591445923,
                -1.0061402320861816
            ],
            "type" : "VEC3"
        },
        {
            "bufferView" : 1,
            "componentType" : 5126,
            "count" : 491,
            "type" : "VEC3"
        },
        {
            "bufferView" : 2,
            "componentType" : 5126,
            "count" : 491,
            "type" : "VEC2"
        },
        {
            "bufferView" : 3,
            "componentType" : 5123,
            "count" : 2250,
            "type" : "SCALAR"
        },
        {
            "bufferView" : 5,
            "componentType" : 5126,
            "count" : 736,
            "max" : [
                0.8772185444831848,
                0.1412097066640854,
                2.004380226135254
            ],
            "min" : [
                -0.8772185444831848,
                -0.6997231245040894,
                -2.004380226135254
            ],
            "type" : "VEC3"
        },
        {
            "bufferView" : 6,
            "componentType" : 5126,
            "count" : 736,
            "type" : "VEC3"
        },
        {
            "bufferView" : 7,
            "componentType" : 5126,
            "count" : 736,
            "type" : "VEC2"
        },
        {
            "bufferView" : 8,
            "componentType" : 5123,
            "count" : 4608,
            "type" : "SCALAR"
        },
        {
            "bufferView" : 9,
            "componentType" : 5126,
            "count" : 734,
            "max" : [
                2.147481918334961,
                0.244781956076622,
                0.38334527611732483
            ],
            "min" : [
                1.4810794591903687,
                0.011668317019939423,
                -0.38667601346969604
            ],
            "type" : "VEC3"
        },
        {
            "bufferView" : 10,
            "componentType" : 5126,
            "count" : 734,
            "type" : "VEC3"
        },
        {
            "bufferView" : 11,
            "componentType" : 5126,
            "count" : 734,
            "type" : "VEC2"
        },
        {
            "bufferView" : 12,
            "componentType" : 5123,
            "count" : 4608,
            "type" : "SCALAR"
        }
    ],
    "bufferViews" : [
        {
            "buffer" : 0,
            "byteLength" : 5892,
            "byteOffset" : 0
        },
        {
            "buffer" : 0,
            "byteLength" : 5892,
            "byteOffset" : 5892
        },
        {
            "buffer" : 0,
            "byteLength" : 3928,
            "byteOffset" : 11784
        },
        {
            "buffer" : 0,
            "byteLength" : 4500,
            "byteOffset" : 15712
        },
        {
            "buffer" : 0,
            "byteLength" : 3416,
            "byteOffset" : 20212
        },
        {
            "buffer" : 0,
            "byteLength" : 8832,
            "byteOffset" : 23628
        },
        {
            "buffer" : 0,
            "byteLength" : 8832,
            "byteOffset" : 32460
        },
        {
            "buffer" : 0,
            "byteLength" : 5888,
            "byteOffset" : 41292
        },
        {
            "buffer" : 0,
            "byteLength" : 9216,
            "byteOffset" : 47180
        },
        {
            "buffer" : 0,
            "byteLength" : 8808,
            "byteOffset" : 56396
        },
        {
            "buffer" : 0,
            "byteLength" : 8808,
            "byteOffset" : 65204
        },
        {
            "buffer" : 0,
            "byteLength" : 5872,
            "byteOffset" : 74012
        },
        {
            "buffer" : 0,
            "byteLength" : 9216,
            "byteOffset" : 79884
        }
    ],
    "samplers" : [
        {
            "magFilter" : 9729,
            "minFilter" : 9987
        }
    ],
    "buffers" : [
        {
            "byteLength" : 89100,
            "uri" : "data:application/octet-stream;base64,"
        }
    ]
}
