{
    "asset" : {
        "generator" : "Khronos glTF Blender I/O v3.2.43",
        "version" : "2.0"
    },
    "scene" : 0,
    "scenes" : [
        {
            "name" : "Scene",
            "nodes" : [
                5
            ]
        }
    ],
    "nodes" : [
        {
            "mesh" : 0,
            "name" : "Cylinder.001",
            "scale" : [
                1.490520715713501,
                1.49052095413208,
                1.490520715713501
            ],
            "translation" : [
                0,
                2.9417901039123535,
                0
            ]
        },
        {
            "mesh" : 1,
            "name" : "Cylinder.002",
            "rotation" : [
                0.003283609403297305,
                -0.0004692120128311217,
                -0.06713871657848358,
                0.9977381825447083
            ],
            "scale" : [
                1.2445467710494995,
                1.24454665184021,
                1.24454665184021
            ],
            "translation" : [
                0,
                4.881710052490234,
                0
            ]
        },
        {
            "mesh" : 2,
            "name" : "Cylinder.003",
            "rotation" : [
                -0.03810017555952072,
                0.00990974623709917,
                0.05596190318465233,
                0.9976564645767212
            ],
            "scale" : [
                0.9874272346496582,
                1.3197320699691772,
                0.9848806262016296
            ],
            "translation" : [
                -0.20634743571281433,
                6.586514949798584,
                -0.09616463631391525
            ]
        },
        {
            "mesh" : 3,
            "name" : "Cylinder.004",
            "rotation" : [
                -0.025588611140847206,
                -0.023822924122214317,
                -0.050922691822052,
                0.9980905652046204
            ],
            "scale" : [
                0.7916290760040283,
                1.2068156003952026,
                0.7887080907821655
            ],
            "translation" : [
                -0.014794830232858658,
                8.243443489074707,
                -0.14545470476150513
            ]
        },
        {
            "mesh" : 4,
            "name" : "Cylinder.005",
            "rotation" : [
                -0.025588611140847206,
                -0.023822924122214317,
                -0.050922691822052,
                0.9980905652046204
            ],
            "scale" : [
                0.7916290760040283,
                1.2068156003952026,
                0.7887080907821655
            ],
            "translation" : [
                0.16049326956272125,
                9.666672706604004,
                -0.17288726568222046
            ]
        },
        {
            "children" : [
                0,
                1,
                2,
                3,
                4
            ],
            "mesh" : 5,
            "name" : "Trunk2",
            "rotation" : [
                0,
                -0.4041326940059662,
                0,
                0.9147003889083862
            ],
            "scale" : [
                0.40141159296035767,
                0.40141159296035767,
                0.40141159296035767
            ],
            "translation" : [
                0.03141593933105469,
                0.416380912065506,
                0
            ]
        }
    ],
    "materials" : [
        {
            "doubleSided" : true,
            "name" : "Green2",
            "pbrMetallicRoughness" : {
                "baseColorFactor" : [
                    0.051706355065107346,
                    0.20787544548511505,
                    0.029285047203302383,
                    1
                ],
                "metallicFactor" : 0,
                "roughnessFactor" : 0.7090908885002136
            }
        },
        {
            "doubleSided" : true,
            "name" : "Trunk2",
            "pbrMetallicRoughness" : {
                "baseColorFactor" : [
                    0.27541765570640564,
                    0.13764652609825134,
                    0.05981375649571419,
                    1
                ],
                "metallicFactor" : 0,
                "roughnessFactor" : 0.8318182229995728
            }
        }
    ],
    "meshes" : [
        {
            "name" : "Cylinder.001",
            "primitives" : [
                {
                    "attributes" : {
                        "POSITION" : 0,
                        "NORMAL" : 1,
                        "TEXCOORD_0" : 2
                    },
                    "indices" : 3,
                    "material" : 0
                }
            ]
        },
        {
            "name" : "Cylinder.002",
            "primitives" : [
                {
                    "attributes" : {
                        "POSITION" : 4,
                        "NORMAL" : 5,
                        "TEXCOORD_0" : 6
                    },
                    "indices" : 7,
                    "material" : 0
                }
            ]
        },
        {
            "name" : "Cylinder.003",
            "primitives" : [
                {
                    "attributes" : {
                        "POSITION" : 8,
                        "NORMAL" : 9,
                        "TEXCOORD_0" : 10
                    },
                    "indices" : 11,
                    "material" : 0
                }
            ]
        },
        {
            "name" : "Cylinder.004",
            "primitives" : [
                {
                    "attributes" : {
                        "POSITION" : 12,
                        "NORMAL" : 13,
                        "TEXCOORD_0" : 14
                    },
                    "indices" : 15,
                    "material" : 0
                }
            ]
        },
        {
            "name" : "Cylinder.005",
            "primitives" : [
                {
                    "attributes" : {
                        "POSITION" : 16,
                        "NORMAL" : 17,
                        "TEXCOORD_0" : 18,
                        "COLOR_0" : 19
                    },
                    "indices" : 20,
                    "material" : 0
                }
            ]
        },
        {
            "name" : "Cylinder",
            "primitives" : [
                {
                    "attributes" : {
                        "POSITION" : 21,
                        "NORMAL" : 22,
                        "TEXCOORD_0" : 23
                    },
                    "indices" : 24,
                    "material" : 1
                }
            ]
        }
    ],
    "accessors" : [
        {
            "bufferView" : 0,
            "componentType" : 5126,
            "count" : 132,
            "max" : [
                1.771830677986145,
                1,
                2.098454713821411
            ],
            "min" : [
                -2.0058510303497314,
                -0.9741926789283752,
                -2.045933723449707
            ],
            "type" : "VEC3"
        },
        {
            "bufferView" : 1,
            "componentType" : 5126,
            "count" : 132,
            "type" : "VEC3"
        },
        {
            "bufferView" : 2,
            "componentType" : 5126,
            "count" : 132,
            "type" : "VEC2"
        },
        {
            "bufferView" : 3,
            "componentType" : 5123,
            "count" : 216,
            "type" : "SCALAR"
        },
        {
            "bufferView" : 4,
            "componentType" : 5126,
            "count" : 132,
            "max" : [
                1.9542698860168457,
                1,
                2.045933723449707
            ],
            "min" : [
                -1.7947889566421509,
                -0.9741926789283752,
                -2.1012637615203857
            ],
            "type" : "VEC3"
        },
        {
            "bufferView" : 5,
            "componentType" : 5126,
            "count" : 132,
            "type" : "VEC3"
        },
        {
            "bufferView" : 6,
            "componentType" : 5126,
            "count" : 132,
            "type" : "VEC2"
        },
        {
            "bufferView" : 7,
            "componentType" : 5123,
            "count" : 216,
            "type" : "SCALAR"
        },
        {
            "bufferView" : 8,
            "componentType" : 5126,
            "count" : 118,
            "max" : [
                1.7718303203582764,
                0.9999997615814209,
                2.067441940307617
            ],
            "min" : [
                -1.7718305587768555,
                -0.9741926789283752,
                -2.045933723449707
            ],
            "type" : "VEC3"
        },
        {
            "bufferView" : 9,
            "componentType" : 5126,
            "count" : 118,
            "type" : "VEC3"
        },
        {
            "bufferView" : 10,
            "componentType" : 5126,
            "count" : 118,
            "type" : "VEC2"
        },
        {
            "bufferView" : 11,
            "componentType" : 5123,
            "count" : 192,
            "type" : "SCALAR"
        },
        {
            "bufferView" : 12,
            "componentType" : 5126,
            "count" : 84,
            "max" : [
                1.771830677986145,
                1,
                2.045933723449707
            ],
            "min" : [
                -1.771830677986145,
                -0.9741926789283752,
                -2.045933723449707
            ],
            "type" : "VEC3"
        },
        {
            "bufferView" : 13,
            "componentType" : 5126,
            "count" : 84,
            "type" : "VEC3"
        },
        {
            "bufferView" : 14,
            "componentType" : 5126,
            "count" : 84,
            "type" : "VEC2"
        },
        {
            "bufferView" : 15,
            "componentType" : 5123,
            "count" : 132,
            "type" : "SCALAR"
        },
        {
            "bufferView" : 16,
            "componentType" : 5126,
            "count" : 72,
            "max" : [
                1.4642202854156494,
                1.0000004768371582,
                1.6907358169555664
            ],
            "min" : [
                -1.464220404624939,
                -0.9741926789283752,
                -1.6907355785369873
            ],
            "type" : "VEC3"
        },
        {
            "bufferView" : 17,
            "componentType" : 5126,
            "count" : 72,
            "type" : "VEC3"
        },
        {
            "bufferView" : 18,
            "componentType" : 5126,
            "count" : 72,
            "type" : "VEC2"
        },
        {
            "bufferView" : 19,
            "componentType" : 5123,
            "count" : 72,
            "normalized" : true,
            "type" : "VEC4"
        },
        {
            "bufferView" : 20,
            "componentType" : 5123,
            "count" : 102,
            "type" : "SCALAR"
        },
        {
            "bufferView" : 21,
            "componentType" : 5126,
            "count" : 60,
            "max" : [
                0.8694700002670288,
                2.350454092025757,
                1.2741186618804932
            ],
            "min" : [
                -0.8625808954238892,
                -1.0080801248550415,
                -0.9377487897872925
            ],
            "type" : "VEC3"
        },
        {
            "bufferView" : 22,
            "componentType" : 5126,
            "count" : 60,
            "type" : "VEC3"
        },
        {
            "bufferView" : 23,
            "componentType" : 5126,
            "count" : 60,
            "type" : "VEC2"
        },
        {
            "bufferView" : 24,
            "componentType" : 5123,
            "count" : 96,
            "type" : "SCALAR"
        }
    ],
    "bufferViews" : [
        {
            "buffer" : 0,
            "byteLength" : 1584,
            "byteOffset" : 0
        },
        {
            "buffer" : 0,
            "byteLength" : 1584,
            "byteOffset" : 1584
        },
        {
            "buffer" : 0,
            "byteLength" : 1056,
            "byteOffset" : 3168
        },
        {
            "buffer" : 0,
            "byteLength" : 432,
            "byteOffset" : 4224
        },
        {
            "buffer" : 0,
            "byteLength" : 1584,
            "byteOffset" : 4656
        },
        {
            "buffer" : 0,
            "byteLength" : 1584,
            "byteOffset" : 6240
        },
        {
            "buffer" : 0,
            "byteLength" : 1056,
            "byteOffset" : 7824
        },
        {
            "buffer" : 0,
            "byteLength" : 432,
            "byteOffset" : 8880
        },
        {
            "buffer" : 0,
            "byteLength" : 1416,
            "byteOffset" : 9312
        },
        {
            "buffer" : 0,
            "byteLength" : 1416,
            "byteOffset" : 10728
        },
        {
            "buffer" : 0,
            "byteLength" : 944,
            "byteOffset" : 12144
        },
        {
            "buffer" : 0,
            "byteLength" : 384,
            "byteOffset" : 13088
        },
        {
            "buffer" : 0,
            "byteLength" : 1008,
            "byteOffset" : 13472
        },
        {
            "buffer" : 0,
            "byteLength" : 1008,
            "byteOffset" : 14480
        },
        {
            "buffer" : 0,
            "byteLength" : 672,
            "byteOffset" : 15488
        },
        {
            "buffer" : 0,
            "byteLength" : 264,
            "byteOffset" : 16160
        },
        {
            "buffer" : 0,
            "byteLength" : 864,
            "byteOffset" : 16424
        },
        {
            "buffer" : 0,
            "byteLength" : 864,
            "byteOffset" : 17288
        },
        {
            "buffer" : 0,
            "byteLength" : 576,
            "byteOffset" : 18152
        },
        {
            "buffer" : 0,
            "byteLength" : 576,
            "byteOffset" : 18728
        },
        {
            "buffer" : 0,
            "byteLength" : 204,
            "byteOffset" : 19304
        },
        {
            "buffer" : 0,
            "byteLength" : 720,
            "byteOffset" : 19508
        },
        {
            "buffer" : 0,
            "byteLength" : 720,
            "byteOffset" : 20228
        },
        {
            "buffer" : 0,
            "byteLength" : 480,
            "byteOffset" : 20948
        },
        {
            "buffer" : 0,
            "byteLength" : 192,
            "byteOffset" : 21428
        }
    ],
    "buffers" : [
        {
            "byteLength" : 21620,
            "uri" : "data:application/octet-stream;base64,"
        }
    ]
}
